<?xml version="1.0" encoding="utf-8"?>
<!-- Generator: Adobe Illustrator 26.0.3, SVG Export Plug-In . SVG Version: 6.00 Build 0)  -->
<svg version="1.1" xmlns="http://www.w3.org/2000/svg" xmlns:xlink="http://www.w3.org/1999/xlink" x="0px" y="0px"
	 viewBox="0 0 1080 1920" style="enable-background:new 0 0 1080 1920;" xml:space="preserve">
<style type="text/css">
	.st0{fill:url(#SVGID_1_);}
	.st1{fill:#2B2B2B;}
</style>
<g id="Background">
	<linearGradient id="SVGID_1_" gradientUnits="userSpaceOnUse" x1="0" y1="960" x2="1080" y2="960">
		<stop  offset="5.327789e-09" style="stop-color:#11998E"/>
		<stop  offset="1" style="stop-color:#38EF7D"/>
	</linearGradient>
	<rect class="st0" width="1080" height="1920"/>
</g>
<g id="Tiempo">
	<g id="Cronómetro">
		<path d="M591.2,1316.32c-0.37,2.24-0.66,4.51-1.13,6.73c-1.1,5.18-3.12,9.99-5.96,14.46c-0.84,1.32-2.1,1.71-3.24,1.02
			c-1.16-0.71-1.4-2.06-0.54-3.43c3.2-5.13,5.28-10.66,5.97-16.68c1.49-13.13-2.19-24.61-11.41-34.06
			c-19.85-20.35-54.19-14.34-66.13,11.46c-11.15,24.11,3.03,52.17,29.06,57.38c10.49,2.1,20.38,0.31,29.54-5.28
			c1.79-1.09,3.02-1.03,3.83,0.22c0.82,1.26,0.3,2.52-1.48,3.63c-23.66,14.77-55.26,4.55-65.79-21.31c-0.4-0.99-0.89-1.24-1.88-1.23
			c-4.53,0.05-9.06,0.02-13.59,0.02c-0.41,0-0.83,0.01-1.23-0.04c-1.2-0.14-2.01-1.01-2.04-2.15c-0.03-1.17,0.81-2.11,2.05-2.27
			c0.37-0.05,0.75-0.04,1.12-0.04c4.08,0,8.16,0,12.24,0c0.4,0,0.8,0,1.23,0c-0.47-2.93-0.92-5.72-1.39-8.65c-1.23,0-2.53,0-3.83,0
			c-1.98,0-3.97,0.02-5.95-0.01c-1.36-0.02-2.32-0.98-2.32-2.23c0-1.25,0.95-2.23,2.31-2.24c2.84-0.03,5.69-0.01,8.54-0.01
			c0.41,0,0.81,0,1.19,0c0.37-2.88,0.72-5.65,1.11-8.63c-0.37,0-0.79,0-1.21,0c-6.96,0-13.93,0-20.89-0.01
			c-0.52,0-1.06-0.02-1.56-0.14c-1.02-0.25-1.69-1.25-1.61-2.29c0.08-1.05,0.86-1.89,1.92-2.02c0.41-0.05,0.82-0.04,1.23-0.04
			c7.49,0,14.97-0.01,22.46,0.02c0.81,0,1.14-0.27,1.44-1c1.05-2.55,2.21-5.05,3.36-7.65c-0.3-0.02-0.65-0.05-1-0.05
			c-3.82,0-7.64,0-11.46-0.01c-1.63,0-2.67-0.89-2.67-2.23c0-1.34,1.06-2.26,2.67-2.26c4.87-0.01,9.73-0.02,14.6,0.01
			c0.81,0.01,1.34-0.2,1.89-0.87c6.41-7.8,14.49-12.99,24.3-15.42c0.29-0.07,0.56-0.18,0.88-0.29c0.02-0.35,0.04-0.69,0.04-1.02
			c0-1.53,0-3.07,0-4.61c-2.78-0.89-4.71-2.6-5.51-5.38c-1.38-4.8,2.08-9.61,7.15-9.72c5.5-0.13,11.01-0.1,16.51-0.01
			c3.85,0.06,6.76,2.75,7.4,6.58c0.57,3.43-1.46,6.89-4.89,8.2c-0.61,0.24-0.86,0.5-0.84,1.18c0.05,1.57,0.02,3.14,0.02,4.61
			c2.66,0.92,5.31,1.63,7.78,2.74c15.59,7.02,24.66,19.06,27.3,35.97c0.14,0.92,0.27,1.84,0.4,2.77
			C591.2,1312.12,591.2,1314.22,591.2,1316.32z M545.83,1258.75c2.5,0,5.01,0.01,7.51-0.01c0.52,0,1.06-0.03,1.54-0.18
			c1.41-0.44,2.31-1.9,2.12-3.32c-0.23-1.68-1.51-2.78-3.39-2.79c-5.2-0.02-10.39-0.02-15.59,0c-2.07,0.01-3.46,1.34-3.44,3.19
			c0.01,1.86,1.38,3.09,3.5,3.1C540.67,1258.76,543.25,1258.75,545.83,1258.75z M540.46,1263.32c0,1.57,0,3.07,0,4.5
			c3.62,0,7.14,0,10.71,0c0-1.47,0-2.95,0-4.5C547.59,1263.32,544.05,1263.32,540.46,1263.32z"/>
		<path d="M580.66,1313.14c-0.01,19.25-15.69,34.94-34.88,34.9c-19.22-0.04-34.83-15.76-34.78-35
			c0.05-19.24,15.63-34.81,34.83-34.81C565.07,1278.22,580.67,1293.86,580.66,1313.14z M545.86,1282.72
			c-16.74-0.03-30.35,13.58-30.36,30.37c-0.02,16.76,13.6,30.43,30.31,30.45c16.71,0.02,30.36-13.64,30.36-30.4
			C576.17,1296.34,562.63,1282.75,545.86,1282.72z"/>
		<path d="M478.47,1324.77c1.22,0.02,2.21,1.02,2.21,2.23c0,1.27-1.04,2.26-2.32,2.22c-1.23-0.04-2.19-1.05-2.15-2.27
			C476.24,1325.73,477.26,1324.76,478.47,1324.77z"/>
		<path d="M576.3,1341.45c1.22-0.02,2.24,0.95,2.28,2.16c0.04,1.24-1.01,2.3-2.27,2.28c-1.23-0.01-2.19-0.98-2.2-2.22
			C574.11,1342.43,575.06,1341.46,576.3,1341.45z"/>
		<path d="M538.82,1312.8c0.11-0.5,0.17-1.27,0.45-1.94c0.28-0.68,0.11-1.07-0.38-1.54c-1.25-1.19-2.45-2.43-3.66-3.65
			c-1.48-1.48-1.68-2.71-0.64-3.78c1.04-1.07,2.38-0.84,3.87,0.64c1.22,1.22,2.45,2.42,3.64,3.67c0.44,0.46,0.8,0.59,1.44,0.35
			c1.52-0.58,3.1-0.58,4.61,0.01c0.65,0.25,1,0.08,1.44-0.36c3.27-3.3,6.56-6.58,9.84-9.87c0.24-0.24,0.47-0.49,0.73-0.7
			c0.96-0.78,2.23-0.74,3.06,0.09c0.82,0.82,0.9,2.14,0.09,3.06c-0.74,0.84-1.57,1.61-2.36,2.41c-2.67,2.68-5.33,5.38-8.03,8.02
			c-0.58,0.57-0.71,1-0.46,1.82c0.89,2.84,0.2,5.38-2.03,7.34c-2.19,1.93-4.75,2.34-7.43,1.12
			C540.28,1318.24,538.97,1316,538.82,1312.8z M545.8,1310.66c-1.39,0.01-2.47,1.13-2.44,2.52c0.03,1.32,1.13,2.42,2.44,2.43
			c1.35,0.02,2.5-1.12,2.5-2.49C548.31,1311.73,547.2,1310.64,545.8,1310.66z"/>
		<path d="M548.09,1290.1c0,0.37,0.02,0.75,0,1.12c-0.09,1.23-0.97,2.11-2.14,2.15c-1.16,0.04-2.17-0.79-2.3-2
			c-0.08-0.77-0.07-1.57-0.02-2.35c0.08-1.35,1.06-2.24,2.33-2.2c1.23,0.04,2.08,0.94,2.14,2.27
			C548.1,1289.43,548.09,1289.76,548.09,1290.1C548.09,1290.1,548.09,1290.1,548.09,1290.1z"/>
		<path d="M568.79,1310.91c0.37,0,0.75-0.02,1.12,0c1.22,0.07,2.13,0.96,2.19,2.12c0.06,1.1-0.73,2.16-1.87,2.3
			c-0.95,0.11-1.94,0.12-2.89-0.02c-1.16-0.16-1.84-1.18-1.77-2.35c0.07-1.14,0.92-1.97,2.11-2.05
			C568.04,1310.89,568.42,1310.91,568.79,1310.91z"/>
		<path d="M548.04,1336.1c0,0.45,0.05,0.9-0.01,1.34c-0.17,1.2-1.18,2.05-2.32,1.99c-1.16-0.06-2.06-0.97-2.12-2.19
			c-0.04-0.71-0.03-1.42,0-2.12c0.05-1.29,0.96-2.22,2.16-2.26c1.2-0.04,2.18,0.85,2.3,2.13c0.04,0.37,0.01,0.74,0.01,1.12
			C548.05,1336.1,548.04,1336.1,548.04,1336.1z"/>
		<path d="M522.87,1310.83c0.45,0.02,0.9,0.01,1.34,0.07c1.08,0.14,1.83,0.97,1.89,2.04c0.06,1.14-0.59,2.14-1.71,2.29
			c-0.99,0.14-2.02,0.14-3.01,0.02c-1.11-0.13-1.85-1.15-1.81-2.23c0.04-1.13,0.88-2.02,2.06-2.13c0.41-0.04,0.82-0.01,1.23-0.01
			C522.87,1310.86,522.87,1310.85,522.87,1310.83z"/>
	</g>
	<g>
		<g>
			<path d="M399.28,1225.38c-6.09,0-10.66-1.63-13.69-4.9s-4.55-7.68-4.55-13.25v-29.05c0-5.65,1.54-10.09,4.61-13.32
				s7.62-4.83,13.62-4.83c6.04,0,10.58,1.6,13.65,4.81c3.06,3.21,4.59,7.65,4.59,13.34v29.05c0,5.65-1.53,10.09-4.59,13.32
				C409.86,1223.77,405.31,1225.38,399.28,1225.38z M399.28,1216.86c3.28,0,5.65-0.86,7.1-2.57c1.45-1.71,2.18-4.06,2.18-7.05
				v-29.05c0-3.02-0.73-5.38-2.18-7.08s-3.82-2.55-7.1-2.55c-3.28,0-5.65,0.85-7.1,2.55s-2.18,4.06-2.18,7.08v29.05
				c0,2.99,0.73,5.34,2.18,7.05C393.63,1216,395.99,1216.86,399.28,1216.86z"/>
			<path d="M448.93,1225.38c-6.09,0-10.66-1.63-13.69-4.9s-4.55-7.68-4.55-13.25v-29.05c0-5.65,1.54-10.09,4.61-13.32
				s7.62-4.83,13.62-4.83c6.04,0,10.58,1.6,13.65,4.81c3.06,3.21,4.59,7.65,4.59,13.34v29.05c0,5.65-1.53,10.09-4.59,13.32
				C459.52,1223.77,454.97,1225.38,448.93,1225.38z M448.93,1216.86c3.28,0,5.65-0.86,7.1-2.57c1.45-1.71,2.18-4.06,2.18-7.05
				v-29.05c0-3.02-0.73-5.38-2.18-7.08s-3.82-2.55-7.1-2.55c-3.28,0-5.65,0.85-7.1,2.55s-2.18,4.06-2.18,7.08v29.05
				c0,2.99,0.73,5.34,2.18,7.05C443.29,1216,445.65,1216.86,448.93,1216.86z"/>
			<path d="M479.26,1188.07v-9.4h9.4v9.4H479.26z M479.26,1224.72v-9.4h9.4v9.4H479.26z"/>
			<path d="M518.98,1225.38c-6.09,0-10.66-1.63-13.69-4.9s-4.55-7.68-4.55-13.25v-29.05c0-5.65,1.54-10.09,4.61-13.32
				s7.62-4.83,13.62-4.83c6.04,0,10.58,1.6,13.65,4.81c3.06,3.21,4.59,7.65,4.59,13.34v29.05c0,5.65-1.53,10.09-4.59,13.32
				C529.57,1223.77,525.02,1225.38,518.98,1225.38z M518.98,1216.86c3.28,0,5.65-0.86,7.1-2.57c1.45-1.71,2.18-4.06,2.18-7.05
				v-29.05c0-3.02-0.73-5.38-2.18-7.08s-3.82-2.55-7.1-2.55c-3.28,0-5.65,0.85-7.1,2.55s-2.18,4.06-2.18,7.08v29.05
				c0,2.99,0.73,5.34,2.18,7.05C513.34,1216,515.7,1216.86,518.98,1216.86z"/>
			<path d="M568.64,1225.38c-6.09,0-10.66-1.63-13.69-4.9s-4.55-7.68-4.55-13.25v-29.05c0-5.65,1.54-10.09,4.61-13.32
				s7.62-4.83,13.62-4.83c6.04,0,10.58,1.6,13.65,4.81c3.06,3.21,4.59,7.65,4.59,13.34v29.05c0,5.65-1.53,10.09-4.59,13.32
				S574.68,1225.38,568.64,1225.38z M568.64,1216.86c3.28,0,5.65-0.86,7.1-2.57c1.45-1.71,2.18-4.06,2.18-7.05v-29.05
				c0-3.02-0.73-5.38-2.18-7.08s-3.82-2.55-7.1-2.55s-5.65,0.85-7.1,2.55s-2.17,4.06-2.17,7.08v29.05c0,2.99,0.72,5.34,2.17,7.05
				C562.99,1216,565.36,1216.86,568.64,1216.86z"/>
			<path d="M598.96,1188.07v-9.4h9.4v9.4H598.96z M598.96,1224.72v-9.4h9.4v9.4H598.96z"/>
			<path d="M638.69,1225.38c-6.09,0-10.66-1.63-13.69-4.9s-4.55-7.68-4.55-13.25v-29.05c0-5.65,1.54-10.09,4.61-13.32
				s7.62-4.83,13.62-4.83c6.04,0,10.58,1.6,13.65,4.81c3.06,3.21,4.59,7.65,4.59,13.34v29.05c0,5.65-1.53,10.09-4.59,13.32
				C649.27,1223.77,644.72,1225.38,638.69,1225.38z M638.69,1216.86c3.28,0,5.65-0.86,7.1-2.57c1.45-1.71,2.18-4.06,2.18-7.05
				v-29.05c0-3.02-0.72-5.38-2.18-7.08c-1.45-1.7-3.82-2.55-7.1-2.55s-5.65,0.85-7.1,2.55c-1.45,1.7-2.18,4.06-2.18,7.08v29.05
				c0,2.99,0.72,5.34,2.18,7.05C633.04,1216,635.41,1216.86,638.69,1216.86z"/>
			<path d="M688.35,1225.38c-6.09,0-10.66-1.63-13.69-4.9c-3.03-3.27-4.55-7.68-4.55-13.25v-29.05c0-5.65,1.54-10.09,4.61-13.32
				s7.62-4.83,13.62-4.83c6.04,0,10.58,1.6,13.65,4.81c3.06,3.21,4.59,7.65,4.59,13.34v29.05c0,5.65-1.53,10.09-4.59,13.32
				C698.93,1223.77,694.38,1225.38,688.35,1225.38z M688.35,1216.86c3.28,0,5.65-0.86,7.1-2.57c1.45-1.71,2.18-4.06,2.18-7.05
				v-29.05c0-3.02-0.72-5.38-2.18-7.08c-1.45-1.7-3.82-2.55-7.1-2.55s-5.65,0.85-7.1,2.55c-1.45,1.7-2.18,4.06-2.18,7.08v29.05
				c0,2.99,0.72,5.34,2.18,7.05C682.7,1216,685.07,1216.86,688.35,1216.86z"/>
		</g>
	</g>
</g>
<g id="Info_General">
	<g>
		<g>
			<path d="M195.97,1822.33v-52.5h6.68l25.69,40.61l-0.87,0.94v-41.55h7.3v52.5h-6.76l-25.62-40l0.87-0.94v40.94H195.97z"/>
			<path d="M261.44,1822.9c-4.91,0-8.72-1.43-11.42-4.28c-2.7-2.85-4.05-6.87-4.05-12.05v-6.11c0-5.13,1.35-9.11,4.05-11.92
				c2.7-2.82,6.5-4.23,11.42-4.23s8.72,1.41,11.42,4.23c2.7,2.82,4.05,6.79,4.05,11.92v6.21c0,5.16-1.35,9.15-4.05,11.98
				C270.16,1821.49,266.35,1822.9,261.44,1822.9z M261.44,1815.89c2.58,0,4.57-0.81,5.98-2.42c1.41-1.61,2.11-3.88,2.11-6.79v-6.21
				c0-2.91-0.7-5.17-2.11-6.76s-3.4-2.38-5.98-2.38c-2.55,0-4.54,0.79-5.96,2.38c-1.42,1.59-2.13,3.84-2.13,6.76v6.21
				c0,2.92,0.71,5.18,2.13,6.79C256.9,1815.09,258.88,1815.89,261.44,1815.89z"/>
			<path d="M287.38,1822.36v-37.51h7.37v37.51H287.38z M309.78,1822.36v-22.73c0-2.65-0.65-4.7-1.95-6.14s-3.14-2.17-5.53-2.17
				c-2.41,0-4.27,0.64-5.58,1.92c-1.31,1.28-1.97,3.07-1.97,5.38l-0.76-7.23c1.16-2.26,2.67-4.01,4.53-5.24
				c1.87-1.23,3.93-1.84,6.2-1.84c3.95,0,7.01,1.33,9.18,3.99c2.17,2.66,3.25,6.43,3.25,11.29v22.76H309.78z M332.19,1822.36v-22.73
				c0-2.65-0.68-4.7-2.04-6.14c-1.36-1.45-3.29-2.17-5.8-2.17c-2.29,0-4.06,0.7-5.31,2.1c-1.25,1.4-1.88,3.37-1.88,5.93l-1.48-7.23
				c1.2-2.5,2.77-4.43,4.7-5.78c1.93-1.35,4.06-2.02,6.4-2.02c4.07,0,7.22,1.33,9.45,3.99c2.23,2.66,3.34,6.43,3.34,11.29v22.76
				H332.19z"/>
			<path d="M350.76,1822.36v-52.54h7.37v52.54H350.76z M367.56,1822.9c-2.34,0-4.37-0.56-6.11-1.68c-1.73-1.12-3.01-2.7-3.83-4.75
				l0.51-7.84c0,1.61,0.29,2.99,0.87,4.12c0.58,1.13,1.42,2,2.51,2.6c1.1,0.6,2.43,0.9,3.99,0.9c2.43,0,4.32-0.74,5.65-2.22
				c1.34-1.48,2.01-3.57,2.01-6.27v-8.13c0-2.75-0.67-4.88-2.01-6.4s-3.22-2.28-5.65-2.28c-1.57,0-2.9,0.29-3.99,0.87
				c-1.1,0.58-1.93,1.42-2.51,2.53c-0.58,1.11-0.87,2.46-0.87,4.05l-0.76-7.23c1.13-2.19,2.61-3.88,4.44-5.08
				c1.83-1.19,3.87-1.79,6.11-1.79c4.02,0,7.13,1.33,9.32,3.99c2.19,2.66,3.29,6.43,3.29,11.29v8.17c0,4.79-1.13,8.52-3.4,11.17
				C374.87,1821.58,371.68,1822.9,367.56,1822.9z"/>
			<path d="M391.01,1822.36v-37.51h7.37v37.51H391.01z M411.64,1793.74c-0.65-0.79-1.47-1.4-2.46-1.81
				c-0.99-0.41-2.13-0.61-3.43-0.61c-2.34,0-4.15,0.64-5.44,1.93c-1.29,1.29-1.93,3.08-1.93,5.37l-0.76-7.23
				c1.13-2.22,2.62-3.95,4.46-5.2c1.84-1.25,3.87-1.88,6.09-1.88c1.71,0,3.26,0.25,4.64,0.74c1.38,0.49,2.6,1.22,3.63,2.19
				L411.64,1793.74z"/>
			<path d="M437.95,1822.9c-5.23,0-9.27-1.46-12.14-4.37c-2.87-2.91-4.3-7.06-4.3-12.43v-4.23c0-5.59,1.38-9.91,4.14-12.97
				c2.76-3.06,6.64-4.59,11.65-4.59c4.72,0,8.38,1.73,10.97,5.2c2.59,3.47,3.88,8.33,3.88,14.6v2.46h-25.29v-5.93h18.28
				c-0.22-3.04-1.01-5.41-2.37-7.12c-1.36-1.71-3.19-2.57-5.47-2.57c-2.77,0-4.93,0.92-6.47,2.75c-1.54,1.83-2.31,4.42-2.31,7.77
				v4.77c0,3.11,0.82,5.49,2.48,7.15c1.65,1.66,3.97,2.49,6.96,2.49c1.49,0,2.97-0.3,4.44-0.9c1.47-0.6,2.78-1.45,3.94-2.53
				l4.84,4.84c-1.85,1.78-3.94,3.16-6.25,4.14C442.61,1822.42,440.28,1822.9,437.95,1822.9z"/>
			<path d="M494.02,1823.01c-4.14,0-7.34-1.33-9.59-3.99c-2.25-2.66-3.38-6.41-3.38-11.26v-8.27c0-4.87,1.1-8.63,3.31-11.29
				c2.2-2.66,5.31-3.99,9.3-3.99c2.22,0,4.25,0.58,6.09,1.73s3.33,2.78,4.46,4.88l-0.76,7.66c0-1.59-0.29-2.95-0.87-4.08
				c-0.58-1.13-1.42-1.99-2.51-2.58c-1.1-0.59-2.43-0.88-3.99-0.88c-2.43,0-4.32,0.76-5.65,2.28s-2.01,3.65-2.01,6.4v8.17
				c0,2.72,0.67,4.82,2.01,6.3c1.34,1.48,3.22,2.22,5.65,2.22c1.57,0,2.9-0.31,3.99-0.92c1.1-0.61,1.93-1.5,2.51-2.66
				s0.87-2.54,0.87-4.16l0.51,7.91c-0.67,1.69-1.84,3.2-3.49,4.53C498.82,1822.34,496.67,1823.01,494.02,1823.01z M503.46,1822.36
				v-52.54h7.37v52.54H503.46z"/>
			<path d="M537.38,1822.9c-5.23,0-9.27-1.46-12.14-4.37c-2.87-2.91-4.3-7.06-4.3-12.43v-4.23c0-5.59,1.38-9.91,4.14-12.97
				c2.76-3.06,6.64-4.59,11.65-4.59c4.72,0,8.38,1.73,10.97,5.2c2.59,3.47,3.88,8.33,3.88,14.6v2.46h-25.29v-5.93h18.28
				c-0.22-3.04-1.01-5.41-2.37-7.12c-1.36-1.71-3.19-2.57-5.47-2.57c-2.77,0-4.93,0.92-6.47,2.75c-1.54,1.83-2.31,4.42-2.31,7.77
				v4.77c0,3.11,0.82,5.49,2.48,7.15c1.65,1.66,3.97,2.49,6.96,2.49c1.49,0,2.97-0.3,4.44-0.9c1.47-0.6,2.78-1.45,3.94-2.53
				l4.84,4.84c-1.86,1.78-3.94,3.16-6.25,4.14C542.04,1822.42,539.72,1822.9,537.38,1822.9z"/>
			<path d="M588.95,1769.82v42.85c0,0.89,0.2,1.59,0.6,2.1s0.96,0.76,1.68,0.76h3.47v7.01h-4.34c-2.77,0-4.93-0.87-6.47-2.6
				c-1.54-1.73-2.31-4.18-2.31-7.33v-42.78H588.95z"/>
			<path d="M615,1822.9c-4.6,0-8.05-0.95-10.35-2.85c-2.3-1.9-3.45-4.82-3.45-8.74c0-3.73,1.05-6.52,3.16-8.37
				c2.11-1.84,5.27-2.76,9.49-2.76h10.66l0.51,5.93h-11.13c-1.9,0-3.34,0.43-4.3,1.28c-0.96,0.85-1.45,2.16-1.45,3.92
				c0,1.9,0.64,3.31,1.91,4.23c1.28,0.92,3.19,1.37,5.75,1.37c2.79,0,4.89-0.3,6.29-0.9c1.4-0.6,2.1-1.54,2.1-2.82l0.76,5.28
				c-0.65,1.01-1.46,1.84-2.42,2.49c-0.96,0.65-2.07,1.14-3.31,1.46C617.97,1822.74,616.56,1822.9,615,1822.9z M624.18,1822.36
				v-23.78c0-2.46-0.66-4.37-1.97-5.73c-1.31-1.36-3.17-2.04-5.58-2.04c-1.47,0-2.92,0.22-4.35,0.67c-1.43,0.45-2.72,1.09-3.85,1.93
				l-5.38-3.69c1.42-1.71,3.29-3.04,5.62-3.99c2.32-0.95,4.91-1.43,7.75-1.43c4.7,0,8.33,1.22,10.91,3.65
				c2.58,2.43,3.87,5.87,3.87,10.3v24.1H624.18z"/>
			<path d="M677.4,1822.9c-5.15,0-9.15-1.42-11.98-4.26c-2.83-2.84-4.25-6.85-4.25-12.03v-6.18c0-5.13,1.41-9.1,4.25-11.91
				c2.83-2.81,6.82-4.21,11.98-4.21c2.94,0,5.59,0.52,7.95,1.55c2.36,1.04,4.24,2.52,5.64,4.44l-5.31,4.77
				c-1.04-1.2-2.26-2.13-3.69-2.78c-1.42-0.65-2.92-0.98-4.48-0.98c-2.84,0-5.05,0.79-6.61,2.38c-1.57,1.59-2.35,3.83-2.35,6.72
				v6.18c0,2.96,0.78,5.25,2.35,6.87c1.57,1.61,3.77,2.42,6.61,2.42c1.56,0,3.06-0.35,4.48-1.05c1.42-0.7,2.65-1.69,3.69-2.96
				l5.31,5.13c-1.4,1.88-3.28,3.33-5.66,4.35C682.96,1822.39,680.31,1822.9,677.4,1822.9z"/>
			<path d="M711.11,1822.9c-4.6,0-8.05-0.95-10.35-2.85c-2.3-1.9-3.45-4.82-3.45-8.74c0-3.73,1.05-6.52,3.16-8.37
				c2.11-1.84,5.27-2.76,9.48-2.76h10.66l0.51,5.93h-11.13c-1.9,0-3.34,0.43-4.3,1.28c-0.96,0.85-1.45,2.16-1.45,3.92
				c0,1.9,0.64,3.31,1.92,4.23c1.28,0.92,3.19,1.37,5.75,1.37c2.79,0,4.89-0.3,6.29-0.9c1.4-0.6,2.1-1.54,2.1-2.82l0.76,5.28
				c-0.65,1.01-1.46,1.84-2.42,2.49c-0.96,0.65-2.07,1.14-3.31,1.46C714.08,1822.74,712.68,1822.9,711.11,1822.9z M720.29,1822.36
				v-23.78c0-2.46-0.66-4.37-1.97-5.73c-1.31-1.36-3.17-2.04-5.58-2.04c-1.47,0-2.92,0.22-4.35,0.67c-1.43,0.45-2.72,1.09-3.85,1.93
				l-5.38-3.69c1.42-1.71,3.29-3.04,5.62-3.99c2.33-0.95,4.91-1.43,7.75-1.43c4.7,0,8.33,1.22,10.91,3.65
				c2.58,2.43,3.87,5.87,3.87,10.3v24.1H720.29z"/>
			<path d="M738.5,1822.36v-37.51h7.37v37.51H738.5z M759.13,1793.74c-0.65-0.79-1.47-1.4-2.46-1.81c-0.99-0.41-2.13-0.61-3.43-0.61
				c-2.34,0-4.15,0.64-5.44,1.93c-1.29,1.29-1.93,3.08-1.93,5.37l-0.76-7.23c1.13-2.22,2.62-3.95,4.46-5.2
				c1.84-1.25,3.87-1.88,6.09-1.88c1.71,0,3.26,0.25,4.64,0.74c1.38,0.49,2.59,1.22,3.63,2.19L759.13,1793.74z"/>
			<path d="M770.08,1822.36v-37.51h7.37v37.51H770.08z M790.71,1793.74c-0.65-0.79-1.47-1.4-2.46-1.81
				c-0.99-0.41-2.13-0.61-3.43-0.61c-2.34,0-4.15,0.64-5.44,1.93c-1.29,1.29-1.93,3.08-1.93,5.37l-0.76-7.23
				c1.13-2.22,2.62-3.95,4.46-5.2c1.84-1.25,3.87-1.88,6.09-1.88c1.71,0,3.26,0.25,4.64,0.74c1.38,0.49,2.59,1.22,3.63,2.19
				L790.71,1793.74z"/>
			<path d="M817.02,1822.9c-5.23,0-9.27-1.46-12.14-4.37c-2.87-2.91-4.3-7.06-4.3-12.43v-4.23c0-5.59,1.38-9.91,4.14-12.97
				c2.76-3.06,6.64-4.59,11.65-4.59c4.72,0,8.38,1.73,10.97,5.2c2.59,3.47,3.88,8.33,3.88,14.6v2.46h-25.29v-5.93h18.28
				c-0.22-3.04-1.01-5.41-2.37-7.12c-1.36-1.71-3.19-2.57-5.47-2.57c-2.77,0-4.93,0.92-6.47,2.75c-1.54,1.83-2.31,4.42-2.31,7.77
				v4.77c0,3.11,0.83,5.49,2.47,7.15c1.65,1.66,3.97,2.49,6.96,2.49c1.49,0,2.97-0.3,4.44-0.9c1.47-0.6,2.78-1.45,3.94-2.53
				l4.84,4.84c-1.86,1.78-3.94,3.16-6.25,4.14C821.68,1822.42,819.35,1822.9,817.02,1822.9z"/>
			<path d="M841.33,1822.36v-37.51h7.37v37.51H841.33z M861.96,1793.74c-0.65-0.79-1.47-1.4-2.46-1.81
				c-0.99-0.41-2.13-0.61-3.43-0.61c-2.34,0-4.15,0.64-5.44,1.93c-1.29,1.29-1.93,3.08-1.93,5.37l-0.76-7.23
				c1.13-2.22,2.62-3.95,4.46-5.2c1.84-1.25,3.87-1.88,6.09-1.88c1.71,0,3.26,0.25,4.64,0.74c1.38,0.49,2.59,1.22,3.63,2.19
				L861.96,1793.74z"/>
			<path d="M884.91,1822.9c-4.6,0-8.05-0.95-10.35-2.85c-2.3-1.9-3.45-4.82-3.45-8.74c0-3.73,1.05-6.52,3.16-8.37
				c2.11-1.84,5.27-2.76,9.48-2.76h10.66l0.51,5.93h-11.13c-1.9,0-3.34,0.43-4.3,1.28c-0.96,0.85-1.45,2.16-1.45,3.92
				c0,1.9,0.64,3.31,1.92,4.23c1.28,0.92,3.19,1.37,5.75,1.37c2.79,0,4.89-0.3,6.29-0.9c1.4-0.6,2.1-1.54,2.1-2.82l0.76,5.28
				c-0.65,1.01-1.46,1.84-2.42,2.49c-0.96,0.65-2.07,1.14-3.31,1.46C887.88,1822.74,886.47,1822.9,884.91,1822.9z M894.09,1822.36
				v-23.78c0-2.46-0.66-4.37-1.97-5.73c-1.31-1.36-3.17-2.04-5.58-2.04c-1.47,0-2.92,0.22-4.35,0.67c-1.43,0.45-2.72,1.09-3.85,1.93
				l-5.38-3.69c1.42-1.71,3.29-3.04,5.62-3.99c2.33-0.95,4.91-1.43,7.75-1.43c4.7,0,8.33,1.22,10.91,3.65
				c2.58,2.43,3.87,5.87,3.87,10.3v24.1H894.09z"/>
		</g>
	</g>
	<g>
		<g>
			<path d="M406.06,1881.72v-34.08h4.78v34.08H406.06z M408.45,1881.72v-4.55h19.5v4.55H408.45z"/>
			<path d="M437.89,1857.4v14.79c0,1.7,0.43,3.02,1.3,3.95s2.09,1.39,3.67,1.39s2.79-0.42,3.64-1.25s1.28-2.01,1.28-3.53l0.33,5.09
				c-0.44,1.09-1.2,2.07-2.3,2.94s-2.52,1.3-4.29,1.3c-2.69,0-4.76-0.86-6.22-2.59s-2.19-4.16-2.19-7.3v-14.79H437.89z
				 M447.78,1881.72v-24.33h4.76v24.33H447.78z"/>
			<path d="M467.52,1882.15c-2.69,0-4.76-0.86-6.22-2.59s-2.19-4.16-2.19-7.3v-5.37c0-3.16,0.71-5.6,2.14-7.32s3.44-2.59,6.04-2.59
				c1.44,0,2.75,0.38,3.95,1.12s2.16,1.8,2.89,3.16l-0.49,4.97c0-1.03-0.19-1.91-0.56-2.65s-0.92-1.29-1.63-1.68
				s-1.57-0.57-2.59-0.57c-1.58,0-2.8,0.49-3.67,1.48s-1.3,2.37-1.3,4.15v5.3c0,1.77,0.43,3.13,1.3,4.09s2.09,1.44,3.67,1.44
				c1.02,0,1.88-0.2,2.59-0.6s1.25-0.97,1.63-1.72s0.56-1.65,0.56-2.7l0.33,5.13c-0.44,1.09-1.19,2.07-2.26,2.94
				S469.24,1882.15,467.52,1882.15z M467.96,1891.61c-1.83,0-3.46-0.34-4.91-1.02s-2.57-1.64-3.36-2.87l3.23-2.93
				c0.62,0.86,1.37,1.52,2.24,1.99s1.78,0.7,2.73,0.7c1.83,0,3.24-0.5,4.24-1.51s1.5-2.43,1.5-4.28v-24.3h4.78v23.6
				c0,3.38-0.91,5.99-2.73,7.84S471.29,1891.61,467.96,1891.61z"/>
			<path d="M493.46,1882.08c-2.98,0-5.22-0.62-6.71-1.85s-2.24-3.12-2.24-5.67c0-2.42,0.68-4.23,2.05-5.43s3.42-1.79,6.15-1.79h6.91
				l0.33,3.84h-7.22c-1.23,0-2.16,0.28-2.79,0.83s-0.94,1.4-0.94,2.54c0,1.23,0.41,2.15,1.24,2.74s2.07,0.89,3.73,0.89
				c1.81,0,3.17-0.2,4.08-0.59s1.36-1,1.36-1.83l0.49,3.42c-0.42,0.66-0.95,1.2-1.57,1.62s-1.34,0.74-2.14,0.95
				S494.48,1882.08,493.46,1882.08z M499.42,1881.72v-15.42c0-1.59-0.43-2.83-1.28-3.71s-2.06-1.32-3.62-1.32
				c-0.95,0-1.89,0.14-2.82,0.43s-1.76,0.71-2.5,1.25l-3.49-2.39c0.92-1.11,2.14-1.97,3.64-2.59s3.18-0.93,5.03-0.93
				c3.05,0,5.41,0.79,7.08,2.37s2.51,3.8,2.51,6.68v15.63H499.42z"/>
			<path d="M511.23,1881.72v-24.33h4.78v24.33H511.23z M524.61,1863.16c-0.42-0.52-0.95-0.91-1.59-1.17s-1.38-0.4-2.23-0.4
				c-1.52,0-2.69,0.42-3.53,1.25s-1.25,2-1.25,3.48l-0.49-4.69c0.73-1.44,1.7-2.56,2.89-3.38s2.51-1.22,3.95-1.22
				c1.11,0,2.11,0.16,3.01,0.48s1.68,0.79,2.36,1.42L524.61,1863.16z"/>
			<path d="M551.73,1883.72l-9.7-26.32h4.88l7.48,21.14L551.73,1883.72z M558.69,1857.4h4.88l-10.36,30.02
				c-0.58,1.67-1.41,2.83-2.51,3.48s-2.59,0.97-4.5,0.97h-0.96v-4.59h0.96c0.89,0,1.6-0.18,2.12-0.54s0.98-0.98,1.37-1.85
				L558.69,1857.4z"/>
			<path d="M578.8,1861.47v-4.08h12.16v4.08H578.8z M581.38,1881.72v-27.63c0-2.14,0.49-3.75,1.48-4.83s2.52-1.62,4.59-1.62h3.52
				v4.55h-3.42c-0.48,0-0.84,0.18-1.05,0.55s-0.33,0.8-0.33,1.3v27.68H581.38z"/>
			<path d="M605.85,1882.08c-3.39,0-6.02-0.95-7.88-2.84s-2.79-4.58-2.79-8.06v-2.74c0-3.62,0.89-6.43,2.68-8.41
				s4.31-2.98,7.56-2.98c3.06,0,5.43,1.12,7.11,3.38s2.52,5.41,2.52,9.47v1.59h-16.41v-3.84h11.86c-0.14-1.97-0.65-3.51-1.54-4.62
				s-2.07-1.66-3.55-1.66c-1.8,0-3.2,0.59-4.2,1.78s-1.5,2.87-1.5,5.04v3.09c0,2.02,0.54,3.56,1.61,4.64s2.57,1.62,4.51,1.62
				c0.97,0,1.93-0.2,2.88-0.59s1.8-0.94,2.55-1.64l3.14,3.14c-1.2,1.16-2.55,2.05-4.05,2.68S607.36,1882.08,605.85,1882.08z"/>
			<path d="M631.44,1882.08c-3.34,0-5.93-0.92-7.77-2.77s-2.75-4.45-2.75-7.8v-4.01c0-3.33,0.92-5.9,2.75-7.72s4.43-2.73,7.77-2.73
				c1.91,0,3.62,0.34,5.16,1.01s2.75,1.63,3.66,2.88l-3.45,3.09c-0.67-0.78-1.47-1.38-2.39-1.8s-1.89-0.63-2.91-0.63
				c-1.84,0-3.27,0.52-4.29,1.55s-1.52,2.48-1.52,4.36v4.01c0,1.92,0.51,3.41,1.52,4.45s2.45,1.57,4.29,1.57
				c1.02,0,1.98-0.23,2.91-0.68s1.72-1.09,2.39-1.92l3.45,3.33c-0.91,1.22-2.13,2.16-3.67,2.82S633.33,1882.08,631.44,1882.08z"/>
			<path d="M645.53,1881.72v-34.08h4.78v34.08H645.53z M660.29,1881.72v-14.74c0-1.72-0.44-3.05-1.32-3.98s-2.14-1.41-3.76-1.41
				c-1.56,0-2.77,0.41-3.62,1.22s-1.28,1.96-1.28,3.45l-0.49-4.69c0.75-1.44,1.73-2.55,2.94-3.34s2.55-1.18,4.02-1.18
				c2.64,0,4.68,0.86,6.13,2.59s2.17,4.17,2.17,7.32v14.77H660.29z"/>
			<path d="M680.12,1882.08c-2.98,0-5.22-0.62-6.71-1.85s-2.24-3.12-2.24-5.67c0-2.42,0.68-4.23,2.05-5.43s3.42-1.79,6.15-1.79h6.91
				l0.33,3.84h-7.22c-1.23,0-2.16,0.28-2.79,0.83s-0.94,1.4-0.94,2.54c0,1.23,0.41,2.15,1.24,2.74s2.07,0.89,3.73,0.89
				c1.81,0,3.17-0.2,4.08-0.59s1.36-1,1.36-1.83l0.49,3.42c-0.42,0.66-0.95,1.2-1.57,1.62s-1.34,0.74-2.14,0.95
				S681.13,1882.08,680.12,1882.08z M686.07,1881.72v-15.42c0-1.59-0.43-2.83-1.28-3.71s-2.06-1.32-3.62-1.32
				c-0.95,0-1.89,0.14-2.82,0.43s-1.76,0.71-2.5,1.25l-3.49-2.39c0.92-1.11,2.14-1.97,3.64-2.59s3.18-0.93,5.03-0.93
				c3.05,0,5.41,0.79,7.08,2.37s2.51,3.8,2.51,6.68v15.63H686.07z"/>
		</g>
	</g>
</g>
<g id="Puesto">
	<g id="Trofeo">
		<path d="M906.6,1401.5c2.74,1.33,2.74,1.33,4.72,5.46c4.74-0.89,8.41,0.79,10.9,4.88c2.22,3.64,1.86,7.94-0.8,11.26
			c-1.58,1.97-3.25,3.87-4.8,5.86c-0.47,0.6-0.85,1.36-0.99,2.11c-0.72,3.88-2.32,7.35-4.83,10.38c-1.32,1.59-2.61,3.21-4.03,4.71
			c-0.74,0.79-0.89,1.49-0.36,2.4c0.24,0.42,0.39,0.9,0.62,1.45c0.35-0.12,0.67-0.2,0.97-0.33c2.41-1.05,4.83-2.11,7.23-3.18
			c2.7-1.2,6.25,0.39,7.42,3.43c1.67,4.35,3.26,8.73,4.89,13.1c1.92,5.15,3.85,10.31,5.76,15.46c1.27,3.43,0.2,6.17-3.08,7.83
			c-2.55,1.3-5.12,2.57-7.68,3.86c-0.03,0.02-0.05,0.06-0.19,0.22c0.39,0.96,0.81,2.01,1.24,3.05c0.59,1.41,1.21,2.81,1.76,4.23
			c0.23,0.59,0.53,0.82,1.17,0.81c1.68-0.04,3.37-0.03,5.05-0.01c3.2,0.03,4.84,1.2,5.96,4.2c0.48,1.28,0.95,2.57,1.48,4.01
			c-10.51,4.12-20.99,8.22-31.64,12.4c-0.77-2.62-2.53-4.85-2.27-7.71c0.12-1.36,0.78-2.46,1.76-3.38c1.33-1.27,2.68-2.52,3.95-3.84
			c0.26-0.27,0.43-0.88,0.32-1.24c-0.94-3.03-1.93-6.04-2.96-9.04c-0.11-0.33-0.57-0.72-0.91-0.76c-2.8-0.4-5.61-0.74-8.42-1.04
			c-0.42-0.04-0.89,0.16-1.3,0.33c-17.5,7.25-35,14.5-52.51,21.76c-0.39,0.16-0.78,0.3-1.27,0.49c-0.5-1.1-0.98-2.16-1.53-3.38
			c11.48-4.76,22.93-9.51,34.49-14.3c-2.16-6.49-4.31-12.92-6.48-19.43c-8.91,3.56-17.72,7.09-26.66,10.66
			c-0.46-1.22-0.88-2.35-1.35-3.6c2.27-0.92,4.48-1.83,6.69-2.73c12.95-5.26,25.9-10.52,38.87-15.76c0.68-0.28,1.01-0.62,1.14-1.37
			c0.3-1.77,0.73-3.52,1.08-5.28c0.3-1.48,0.98-2.71,2.14-3.69c0.22-0.19,0.34-0.69,0.28-1c-0.32-1.56-1.08-2.38-2.91-2.45
			c-3.43-0.13-6.89-0.36-10.14-1.66c-1.27-0.51-2.68-0.9-3.73-1.72c-2.2-1.71-4.71-1.98-7.31-2.2c-1.68-0.14-3.37-0.26-5.01-0.58
			c-4.63-0.92-8-4.43-8.63-8.85c-0.63-4.36,1.51-8.49,5.59-10.81c0.1-0.06,0.18-0.13,0.34-0.25c-0.31-0.91-0.66-1.83-0.92-2.77
			c-0.92-3.31,0.47-6.01,3.73-7.2c5.38-1.96,10.78-3.88,16.17-5.82c8.16-2.93,16.32-5.86,24.48-8.8c0.06-0.02,0.11-0.1,0.16-0.15
			C905.07,1401.5,905.83,1401.5,906.6,1401.5z M903.23,1451.04c-0.51-1.36-0.94-2.59-1.44-3.78c-0.23-0.57-0.16-0.95,0.25-1.42
			c2.02-2.3,4.08-4.57,5.95-6.98c4.02-5.16,5.47-11.06,3.89-17.38c-1.24-4.95-3.06-9.76-4.67-14.61c-0.42-1.27-1.33-1.56-2.81-1.02
			c-13.11,4.71-26.22,9.43-39.33,14.16c-1.55,0.56-1.96,1.43-1.36,2.94c1.73,4.41,3.37,8.86,5.26,13.19
			c2.61,5.96,7.17,9.93,13.47,11.47c3.57,0.88,7.33,1.02,11,1.42c0.76,0.08,1.15,0.33,1.41,1.04c0.46,1.28,1,2.53,1.53,3.85
			C898.71,1452.93,900.92,1452,903.23,1451.04z M920.38,1454.47c-0.46-1.22-0.88-2.33-1.31-3.43c-0.63-1.63-1.51-2.02-3.14-1.33
			c-6.89,2.94-13.77,5.87-20.63,8.87c-0.58,0.25-1.21,0.93-1.36,1.53c-0.55,2.18-0.91,4.41-1.31,6.63c-0.05,0.28,0.05,0.6,0.15,0.89
			c2.19,6.6,4.37,13.2,6.61,19.78c0.13,0.37,0.69,0.79,1.09,0.85c3.67,0.49,7.36,0.94,11.04,1.33c0.77,0.08,1.68,0.13,2.35-0.18
			c5-2.39,9.95-4.87,14.92-7.32c0.95-0.47,1.23-1.24,0.94-2.19c-0.26-0.83-0.62-1.63-0.98-2.53c-2.99,1.01-5.91,1.99-8.93,3.01
			c-0.39-1.24-0.76-2.38-1.14-3.59c2.97-0.98,5.81-1.91,8.75-2.88c-0.79-2.1-1.52-4.06-2.28-6.07c-3.08,1.02-6.07,2.01-9.14,3.03
			c-0.39-1.25-0.76-2.4-1.14-3.6c3.01-1.03,5.92-2.03,8.94-3.06c-0.78-2.06-1.52-4.04-2.29-6.08c-3.17,1.03-6.2,2.01-9.33,3.03
			c-0.4-1.27-0.76-2.41-1.13-3.61C914.23,1456.48,917.24,1455.5,920.38,1454.47z M883.05,1488.77c-1.62-4.89-3.19-9.66-4.78-14.48
			c-1.53,0.61-2.93,1.16-4.37,1.74c2.18,6.54,4.32,12.94,6.48,19.41c5.21-2.19,10.3-4.33,15.43-6.48
			c-2.18-6.47-4.32-12.83-6.48-19.24c-2.57,1.03-5.05,2.02-7.61,3.05c1.65,4.98,3.28,9.89,4.93,14.85
			C885.4,1488.01,884.28,1488.37,883.05,1488.77z M909.62,1514.07c8.11-3.23,16.15-6.43,24.21-9.64c-0.18-1.18-0.59-2.22-1.8-2.27
			c-2.67-0.11-5.48-0.55-8,0.07c-4.19,1.03-8.64,1.87-11.57,5.66c-0.72,0.93-1.71,1.64-2.56,2.46
			C908.65,1511.54,908.57,1512.48,909.62,1514.07z M868.83,1443.11c-3.29-4.01-4.62-8.63-6.57-12.95c-2.48,1.26-3.85,3.69-3.62,6.34
			c0.25,2.88,2,5.21,4.69,5.86C865,1442.76,866.76,1442.84,868.83,1443.11z M912.71,1410.69c1.26,4.22,2.49,8.38,3.75,12.61
			c0.88-1.16,1.95-2.28,2.68-3.59c1.24-2.22,1.03-4.5-0.42-6.58C917.27,1411.04,915.19,1410.38,912.71,1410.69z M918.52,1491.75
			c-2.08,0.82-4.07,1.6-6.17,2.43c0.71,2.08,1.51,4.41,2.32,6.78c2.33-0.79,4.56-1.53,6.84-2.3
			C920.48,1496.26,919.5,1493.99,918.52,1491.75z"/>
		<path d="M934.52,1463.32c0-1.22,0-2.39,0-3.66c2.93-0.18,5.43-1.21,7.32-3.49c1.9-2.29,2.32-5,2.15-7.93c1.27,0,2.44,0,3.83,0
			c-0.14,2.81,0.18,5.54,2.06,7.83c1.89,2.3,4.35,3.41,7.36,3.55c0,1.22,0,2.42,0,3.76c-2.86,0.14-5.36,1.19-7.27,3.44
			c-1.92,2.28-2.32,5-2.16,7.93c-1.3,0-2.47,0-3.77,0C944.25,1468.27,941.4,1464.18,934.52,1463.32z M945.96,1457.19
			c0.16,0.17,0.31,0.33,0.47,0.5c-1.47,1.45-2.94,2.91-3.89,3.84c1.01,0.99,2.48,2.44,3.43,3.38c0.98-0.98,2.43-2.42,3.88-3.86
			c-0.31-0.17-1.15-0.78-1.87-1.5C947.24,1458.81,946.62,1457.97,945.96,1457.19z"/>
		<path d="M940.14,1436.69c-1.24,0-2.41,0-3.68,0c0.15-6.56-2.7-10.65-9.54-11.47c0-1.19,0-2.39,0-3.68
			c2.94-0.15,5.43-1.22,7.33-3.49c1.9-2.28,2.29-5.01,2.16-7.92c1.28,0,2.44,0,3.73,0c-0.17,6.57,2.7,10.65,9.54,11.48
			c0,1.18,0,2.38,0,3.6C942.88,1426.02,939.97,1430.06,940.14,1436.69z M938.29,1420c-0.99,1-2.44,2.46-3.39,3.42
			c0.99,0.98,2.44,2.42,3.41,3.38c0.98-0.98,2.44-2.43,3.4-3.4C940.72,1422.41,939.28,1420.97,938.29,1420z"/>
		<path d="M865.86,1459.72c0,1.21,0,2.39,0,3.67c-2.94,0.15-5.43,1.2-7.33,3.47c-1.9,2.28-2.31,4.99-2.17,7.91
			c-1.28,0-2.45,0-3.74,0c0.16-6.54-2.69-10.63-9.53-11.44c0-1.19,0-2.39,0-3.68c2.92-0.16,5.42-1.21,7.31-3.48
			c1.9-2.28,2.31-5,2.15-7.93c1.3,0,2.47,0,3.75,0C856.13,1454.8,859,1458.87,865.86,1459.72z M851.05,1461.51
			c0.98,0.98,2.44,2.44,3.37,3.37c1-1,2.46-2.45,3.39-3.38c-0.96-0.98-2.38-2.43-3.35-3.42
			C853.45,1459.09,852,1460.56,851.05,1461.51z"/>
		<path d="M901.6,1437.98c-0.92-0.92-1.75-1.75-2.64-2.64c2.46-2.59,3.58-5.73,3.55-9.33c-0.03-3.39-0.93-6.56-2.28-9.62
			c-0.49-1.11-1.08-2.18-1.65-3.32c1.02-0.66,2.04-1.32,3.09-2c0.18,0.22,0.35,0.38,0.46,0.57c2.69,4.72,4.4,9.74,4.22,15.24
			C906.19,1431.17,904.65,1434.9,901.6,1437.98z"/>
	</g>
	<g id="Win">
		<path d="M597.7,1708.35c-0.7,1.25-1.79,1.59-3.18,1.59c-36.2-0.02-72.39-0.02-108.59-0.02c-2.53,0-3.22-0.68-3.23-3.18
			c0-5.17-0.01-10.33,0-15.5c0.01-4.56,2.79-7.37,7.33-7.38c8.91-0.01,17.82-0.01,26.73,0.01c0.89,0,1.78,0.15,2.78,0.23
			c0-0.38,0-0.78,0-1.18c0-8.38,0-16.77,0-25.15c0-4.86,2.72-7.59,7.56-7.6c8.76,0,17.52,0,26.28,0c4.71,0,7.48,2.76,7.49,7.45
			c0,4.83,0,9.66,0,14.49c0,0.41,0,0.81,0,0.98c5.05,0,10.02,0,14.98,0c4.45,0,8.91,0,13.36,0c5.08,0,6.6,1.01,8.49,5.62
			C597.7,1688.59,597.7,1698.47,597.7,1708.35z M530.31,1705.38c0-0.51,0-0.92,0-1.32c0-5.91,0-11.83,0-17.74
			c0-0.37-0.01-0.75,0.04-1.12c0.18-1.17,1.11-2,2.22-1.99c1.11,0.01,2.03,0.84,2.2,2.02c0.05,0.37,0.04,0.75,0.04,1.12
			c0,5.95,0,11.9,0,17.85c0,0.39,0,0.79,0,1.18c7.26,0,14.36,0,21.56,0c0-0.42,0-0.78,0-1.14c0-15.49,0-30.99,0-46.48
			c0-2.35-0.74-3.08-3.1-3.08c-8.68,0-17.37,0-26.05,0c-2.51,0-3.19,0.69-3.19,3.21c0,15.42,0,30.84,0,46.26c0,0.4,0,0.8,0,1.24
			C526.15,1705.38,528.16,1705.38,530.31,1705.38z M560.86,1705.35c10.86,0,21.57,0,32.34,0c0-0.41,0-0.74,0-1.07
			c0-7.89,0-15.79,0-23.68c0-2.27-0.75-3.02-3.04-3.02c-8.75,0-17.51,0-26.26,0c-2.29,0-3.04,0.75-3.04,3.02c0,6.28,0,12.57,0,18.85
			C560.86,1701.4,560.86,1703.34,560.86,1705.35z M519.53,1705.38c0-4.8,0-9.48,0-14.15c0-2.05-0.82-2.86-2.86-2.87
			c-8.86-0.01-17.73-0.01-26.59,0c-2.1,0-2.89,0.8-2.89,2.94c0,4.34,0,8.68,0,13.01c0,0.35,0,0.71,0,1.06
			C498.05,1705.38,508.73,1705.38,519.53,1705.38z"/>
		<path d="M597.7,1647.71c-2.09,2.13-4.14,4.29-6.29,6.36c-0.76,0.73-0.98,1.4-0.77,2.44c0.51,2.45,0.85,4.94,1.28,7.4
			c0.17,0.97-0.03,1.8-0.82,2.4c-0.84,0.64-1.73,0.57-2.63,0.09c-2.38-1.26-4.75-2.54-7.16-3.73c-0.41-0.2-1.09-0.21-1.5-0.01
			c-2.31,1.14-4.59,2.36-6.86,3.58c-0.99,0.53-1.94,0.81-2.94,0.08c-1-0.74-0.96-1.78-0.78-2.85c0.43-2.54,0.9-5.08,1.27-7.63
			c0.06-0.42-0.15-1.03-0.45-1.34c-1.83-1.87-3.72-3.69-5.61-5.51c-0.77-0.75-1.3-1.56-0.91-2.69c0.37-1.05,1.2-1.44,2.24-1.58
			c2.52-0.34,5.03-0.75,7.55-1.08c0.78-0.1,1.26-0.38,1.6-1.12c1.07-2.3,2.24-4.56,3.35-6.85c0.47-0.97,1.08-1.71,2.27-1.71
			c1.19,0,1.79,0.76,2.26,1.72c1.12,2.28,2.29,4.54,3.35,6.85c0.35,0.76,0.84,1.01,1.61,1.11c2.41,0.31,4.81,0.73,7.22,1.01
			c1.21,0.14,2.12,0.62,2.7,1.68C597.7,1646.81,597.7,1647.26,597.7,1647.71z M590.37,1648.58c-1.42-0.21-2.85-0.52-4.3-0.62
			c-1.73-0.11-2.83-0.86-3.48-2.49c-0.55-1.38-1.32-2.68-2.06-4.16c-0.78,1.58-1.55,2.91-2.12,4.33c-0.61,1.51-1.66,2.17-3.24,2.3
			c-1.5,0.12-2.98,0.42-4.44,0.63c1.14,1.21,2.15,2.42,3.31,3.46c1.15,1.03,1.43,2.17,1.12,3.62c-0.32,1.51-0.54,3.05-0.83,4.77
			c1.68-0.88,3.19-1.62,4.64-2.44c1.09-0.62,2.09-0.6,3.17,0.01c1.45,0.82,2.94,1.55,4.61,2.41c-0.31-1.84-0.54-3.46-0.88-5.06
			c-0.26-1.26,0.04-2.23,0.98-3.12C588.06,1651.11,589.14,1649.87,590.37,1648.58z"/>
		<path d="M540.87,1594.93c1.25,0.7,1.64,1.78,1.59,3.18c-0.07,2.09-0.01,4.19-0.02,6.28c-0.01,1.73-0.87,2.73-2.3,2.7
			c-1.37-0.03-2.18-1.02-2.19-2.7c-0.01-2.09,0.05-4.19-0.02-6.28c-0.05-1.4,0.34-2.48,1.59-3.18
			C539.97,1594.93,540.42,1594.93,540.87,1594.93z"/>
		<path d="M528.76,1641.39c0.38-2.24,0.67-4.67,1.23-7.02c0.39-1.61,0.11-2.69-1.19-3.77c-1.69-1.41-3.18-3.06-4.78-4.58
			c-0.77-0.73-1.16-1.58-0.83-2.62c0.32-1,1.12-1.42,2.13-1.55c2.56-0.35,5.1-0.76,7.66-1.1c0.77-0.1,1.26-0.38,1.6-1.13
			c1.07-2.3,2.24-4.56,3.35-6.85c0.47-0.97,1.08-1.7,2.27-1.7c1.19,0.01,1.78,0.76,2.25,1.72c1.09,2.25,2.27,4.47,3.3,6.74
			c0.39,0.85,0.93,1.12,1.78,1.22c2.52,0.32,5.03,0.73,7.55,1.08c1.02,0.14,1.8,0.57,2.12,1.57c0.31,0.98-0.03,1.82-0.77,2.54
			c-1.94,1.87-3.89,3.74-5.77,5.66c-0.3,0.3-0.49,0.91-0.43,1.33c0.4,2.66,0.88,5.31,1.34,7.96c0.18,1,0,1.87-0.84,2.51
			c-0.85,0.64-1.73,0.55-2.63,0.07c-2.34-1.24-4.71-2.44-7.04-3.72c-0.64-0.35-1.12-0.33-1.75,0.02c-2.36,1.29-4.74,2.55-7.15,3.76
			C530.48,1644.38,528.75,1643.34,528.76,1641.39z M546.41,1637.5c-0.3-1.81-0.49-3.41-0.85-4.96c-0.33-1.42,0.1-2.43,1.13-3.39
			c1.16-1.07,2.2-2.28,3.35-3.49c-1.41-0.21-2.77-0.52-4.14-0.59c-1.85-0.1-3.06-0.87-3.73-2.65c-0.5-1.33-1.25-2.57-1.97-4.03
			c-0.75,1.51-1.49,2.74-1.98,4.06c-0.67,1.79-1.91,2.51-3.75,2.62c-1.37,0.08-2.73,0.4-4.09,0.61c1.31,1.37,2.51,2.65,3.74,3.9
			c0.71,0.72,0.98,1.52,0.78,2.54c-0.34,1.71-0.59,3.44-0.91,5.38c1.71-0.89,3.23-1.66,4.73-2.48c1.02-0.56,1.96-0.55,2.97,0.01
			C543.16,1635.84,544.66,1636.59,546.41,1637.5z"/>
		<path d="M488.43,1674.98c0.42-2.49,0.85-5.19,1.36-7.87c0.16-0.85,0.06-1.45-0.62-2.07c-1.84-1.7-3.6-3.48-5.4-5.23
			c-0.76-0.74-1.32-1.55-0.93-2.68c0.38-1.1,1.26-1.47,2.34-1.61c2.52-0.34,5.03-0.74,7.55-1.08c0.74-0.1,1.18-0.39,1.5-1.09
			c1.07-2.3,2.23-4.56,3.35-6.85c0.47-0.96,1.07-1.72,2.25-1.73c1.19-0.01,1.8,0.72,2.27,1.69c1.13,2.32,2.31,4.61,3.4,6.94
			c0.31,0.67,0.75,0.93,1.43,1.02c2.59,0.35,5.18,0.76,7.77,1.11c1.01,0.14,1.78,0.55,2.14,1.54c0.38,1.06-0.06,1.88-0.81,2.61
			c-1.85,1.8-3.67,3.64-5.56,5.4c-0.6,0.56-0.75,1.1-0.6,1.86c0.44,2.35,0.83,4.71,1.24,7.07c0.04,0.26,0.08,0.52,0.12,0.78
			c0.12,0.95-0.07,1.79-0.91,2.37c-0.84,0.56-1.68,0.49-2.54,0.03c-2.28-1.21-4.58-2.38-6.84-3.62c-0.76-0.41-1.36-0.47-2.15-0.03
			c-2.31,1.3-4.66,2.53-7.04,3.72C490.08,1678.11,488.37,1676.99,488.43,1674.98z M490.05,1659.36c1.18,1.25,2.25,2.49,3.44,3.62
			c0.98,0.92,1.29,1.91,1.01,3.22c-0.34,1.59-0.55,3.2-0.85,5.01c1.55-0.81,2.95-1.44,4.24-2.24c1.38-0.85,2.61-0.81,3.98,0.02
			c1.3,0.79,2.69,1.42,4.2,2.21c-0.31-1.77-0.55-3.35-0.86-4.92c-0.26-1.31-0.02-2.37,1.01-3.34c1.19-1.11,2.24-2.39,3.35-3.6
			c-1.61-0.24-3.34-0.52-5.07-0.75c-1.11-0.14-1.82-0.72-2.29-1.72c-0.73-1.56-1.52-3.08-2.37-4.79c-0.74,1.5-1.51,2.82-2.07,4.22
			c-0.64,1.59-1.72,2.31-3.39,2.43C492.92,1658.84,491.46,1659.15,490.05,1659.36z"/>
		<path d="M518.06,1604.29c0.25,0.13,0.85,0.3,1.26,0.69c1.81,1.73,3.58,3.49,5.32,5.29c0.98,1.02,0.97,2.32,0.1,3.22
			c-0.9,0.93-2.23,0.93-3.29-0.1c-1.77-1.71-3.5-3.46-5.23-5.22c-0.71-0.72-0.98-1.59-0.53-2.56
			C516.08,1604.74,516.77,1604.3,518.06,1604.29z"/>
		<path d="M557.56,1614.18c-2-0.02-3.07-1.86-2.22-3.31c0.28-0.47,0.69-0.87,1.08-1.27c1.47-1.49,2.94-2.97,4.44-4.43
			c1.11-1.08,2.46-1.17,3.39-0.27c0.95,0.92,0.91,2.27-0.17,3.38c-1.67,1.71-3.35,3.41-5.08,5.06
			C558.53,1613.77,557.87,1614,557.56,1614.18z"/>
		<path d="M532.53,1678.29c-1.21-0.01-2.21-1.01-2.21-2.21c0-1.18,1.02-2.22,2.2-2.24c1.22-0.02,2.3,1.08,2.26,2.29
			C534.76,1677.34,533.75,1678.3,532.53,1678.29z"/>
	</g>
	<g id="Categoría">
		<g id="Categoría_00000083073116452349535550000017506116374379616388_">
			<path d="M323.06,1454.25c-6.09,0-10.66-1.63-13.69-4.9s-4.55-7.68-4.55-13.25v-29.05c0-5.65,1.54-10.09,4.61-13.32
				s7.62-4.83,13.62-4.83c6.04,0,10.58,1.6,13.65,4.81c3.06,3.21,4.59,7.65,4.59,13.34v29.05c0,5.65-1.53,10.09-4.59,13.32
				C333.64,1452.64,329.09,1454.25,323.06,1454.25z M323.06,1445.72c3.28,0,5.65-0.86,7.1-2.57c1.45-1.71,2.18-4.06,2.18-7.05
				v-29.05c0-3.02-0.73-5.38-2.18-7.08s-3.82-2.55-7.1-2.55c-3.28,0-5.65,0.85-7.1,2.55s-2.18,4.06-2.18,7.08v29.05
				c0,2.99,0.73,5.34,2.18,7.05C317.41,1444.87,319.77,1445.72,323.06,1445.72z"/>
			<path d="M371,1454.25c-3.6,0-6.76-0.65-9.47-1.96c-2.71-1.3-4.89-3.19-6.53-5.65c-1.64-2.46-2.7-5.45-3.16-8.96h9.14
				c0.41,2.75,1.49,4.77,3.25,6.04c1.76,1.27,4.01,1.91,6.77,1.91c2.96,0,5.26-0.79,6.9-2.37c1.64-1.58,2.46-3.81,2.46-6.68v-1.93
				c0-3.19-0.78-5.66-2.33-7.41c-1.55-1.74-3.75-2.61-6.59-2.61h-4.53v-8.53h4.53c2.52,0,4.46-0.75,5.82-2.24s2.04-3.6,2.04-6.33
				v-1.98c0-2.52-0.73-4.47-2.18-5.84s-3.51-2.07-6.17-2.07c-2.26,0-4.17,0.64-5.73,1.91c-1.57,1.28-2.64,3.29-3.23,6.04h-9.1
				c0.91-5.27,2.94-9.35,6.09-12.24c3.15-2.89,7.14-4.33,11.98-4.33c5.51,0,9.77,1.45,12.79,4.35c3.02,2.9,4.53,6.99,4.53,12.26
				v1.05c0,3.19-0.86,5.97-2.59,8.33c-1.73,2.36-4.17,4.09-7.34,5.21c3.49,0.73,6.19,2.44,8.11,5.12c1.92,2.68,2.88,6.09,2.88,10.22
				v1.05c0,5.6-1.6,9.93-4.79,13.01C381.34,1452.71,376.83,1454.25,371,1454.25z"/>
			<path d="M448.48,1454.25c-4.45,0-8.35-0.99-11.69-2.97c-3.34-1.98-5.93-4.75-7.78-8.33s-2.77-7.75-2.77-12.52v-17.53
				c0-4.8,0.92-8.99,2.77-12.57s4.44-6.35,7.78-8.33c3.34-1.98,7.24-2.97,11.69-2.97c3.69,0,7.07,0.79,10.13,2.37
				c3.06,1.58,5.62,3.79,7.69,6.64s3.46,6.17,4.2,9.98h-9.18c-0.56-2.05-1.49-3.84-2.79-5.38c-1.3-1.54-2.83-2.73-4.59-3.58
				s-3.57-1.27-5.45-1.27c-3.93,0-7.08,1.38-9.47,4.15c-2.39,2.77-3.58,6.42-3.58,10.96v17.53c0,4.54,1.19,8.19,3.58,10.94
				c2.39,2.75,5.54,4.13,9.47,4.13c2.78,0,5.41-0.88,7.87-2.64s4.12-4.29,4.97-7.6h9.18c-0.73,3.81-2.14,7.13-4.22,9.98
				c-2.08,2.84-4.64,5.05-7.69,6.64C455.54,1453.46,452.17,1454.25,448.48,1454.25z"/>
			<path d="M496.95,1454.25c-5.6,0-9.79-1.16-12.59-3.47c-2.8-2.31-4.2-5.86-4.2-10.63c0-4.54,1.28-7.93,3.85-10.17
				c2.56-2.24,6.41-3.36,11.54-3.36h12.96l0.62,7.21h-13.54c-2.31,0-4.06,0.52-5.23,1.56c-1.17,1.04-1.76,2.63-1.76,4.77
				c0,2.31,0.78,4.03,2.33,5.14c1.55,1.11,3.88,1.67,6.99,1.67c3.4,0,5.95-0.37,7.65-1.1c1.7-0.73,2.55-1.88,2.55-3.43l0.92,6.42
				c-0.79,1.23-1.77,2.24-2.94,3.03c-1.17,0.79-2.51,1.38-4.02,1.78C500.56,1454.05,498.85,1454.25,496.95,1454.25z M508.11,1453.59
				v-28.92c0-2.99-0.8-5.31-2.4-6.96c-1.6-1.66-3.86-2.48-6.79-2.48c-1.79,0-3.55,0.27-5.3,0.81c-1.74,0.54-3.3,1.33-4.68,2.35
				l-6.55-4.48c1.73-2.08,4.01-3.7,6.83-4.86c2.83-1.16,5.97-1.74,9.43-1.74c5.71,0,10.14,1.48,13.27,4.44
				c3.13,2.96,4.7,7.13,4.7,12.52v29.31H508.11z"/>
			<path d="M526.74,1416.06v-8.09h20.57v8.09H526.74z M542.12,1453.81c-3.75,0-6.47-1.04-8.15-3.12c-1.69-2.08-2.53-5.07-2.53-8.96
				v-47.02h8.96v47.11c0,1.08,0.22,1.93,0.66,2.55c0.44,0.62,1.08,0.92,1.93,0.92h4.31v8.53H542.12z"/>
			<path d="M578.29,1454.25c-6.36,0-11.28-1.77-14.77-5.32c-3.49-3.54-5.23-8.58-5.23-15.12v-5.14c0-6.8,1.68-12.06,5.03-15.78
				s8.08-5.58,14.17-5.58c5.74,0,10.19,2.11,13.34,6.33s4.72,10.14,4.72,17.75v2.99H564.8v-7.21h22.24
				c-0.26-3.69-1.22-6.58-2.88-8.66s-3.87-3.12-6.66-3.12c-3.37,0-5.99,1.11-7.87,3.34s-2.81,5.38-2.81,9.45v5.8
				c0,3.78,1,6.68,3.01,8.7s4.83,3.03,8.46,3.03c1.82,0,3.62-0.37,5.4-1.1s3.38-1.76,4.79-3.08l5.89,5.89
				c-2.26,2.17-4.79,3.85-7.6,5.03C583.96,1453.66,581.13,1454.25,578.29,1454.25z"/>
			<path d="M622.32,1454.38c-5.04,0-8.93-1.62-11.67-4.86c-2.74-3.24-4.11-7.8-4.11-13.69v-10.06c0-5.92,1.34-10.5,4.02-13.73
				c2.68-3.24,6.45-4.86,11.32-4.86c2.7,0,5.16,0.7,7.4,2.11s4.05,3.38,5.43,5.93l-0.92,9.32c0-1.93-0.35-3.59-1.05-4.97
				s-1.72-2.42-3.05-3.14c-1.33-0.72-2.95-1.08-4.86-1.08c-2.96,0-5.25,0.92-6.88,2.77s-2.44,4.44-2.44,7.78v9.93
				c0,3.31,0.81,5.87,2.44,7.67c1.63,1.8,3.92,2.7,6.88,2.7c1.9,0,3.52-0.37,4.86-1.12c1.33-0.75,2.35-1.82,3.05-3.23
				s1.05-3.09,1.05-5.05l0.62,9.62c-0.82,2.05-2.23,3.89-4.24,5.51C628.16,1453.57,625.55,1454.38,622.32,1454.38z M623.16,1472.13
				c-3.43,0-6.5-0.64-9.21-1.91c-2.71-1.27-4.81-3.07-6.31-5.38l6.06-5.49c1.17,1.61,2.57,2.86,4.2,3.74s3.33,1.32,5.12,1.32
				c3.43,0,6.08-0.95,7.95-2.83c1.88-1.89,2.81-4.56,2.81-8.02v-45.57h8.96v44.25c0,6.33-1.71,11.23-5.12,14.7
				C634.23,1470.4,629.4,1472.13,623.16,1472.13z"/>
			<path d="M673.87,1454.25c-5.98,0-10.61-1.74-13.89-5.21c-3.28-3.47-4.92-8.36-4.92-14.66v-7.43c0-6.24,1.64-11.07,4.92-14.5
				s7.91-5.14,13.89-5.14s10.61,1.71,13.89,5.14s4.92,8.26,4.92,14.5v7.56c0,6.27-1.64,11.13-4.92,14.57
				S679.85,1454.25,673.87,1454.25z M673.87,1445.72c3.13,0,5.56-0.98,7.27-2.94s2.57-4.72,2.57-8.26v-7.56
				c0-3.54-0.86-6.28-2.57-8.22s-4.14-2.9-7.27-2.9c-3.11,0-5.52,0.97-7.25,2.9c-1.73,1.93-2.59,4.67-2.59,8.22v7.56
				c0,3.54,0.86,6.3,2.59,8.26C668.35,1444.74,670.77,1445.72,673.87,1445.72z"/>
			<path d="M705.42,1453.59v-45.62h8.96v45.62H705.42z M730.52,1418.79c-0.79-0.97-1.79-1.7-2.99-2.2c-1.2-0.5-2.59-0.75-4.18-0.75
				c-2.84,0-5.05,0.78-6.61,2.35c-1.57,1.57-2.35,3.74-2.35,6.53l-0.92-8.79c1.38-2.7,3.19-4.8,5.43-6.33s4.71-2.29,7.41-2.29
				c2.08,0,3.96,0.3,5.65,0.9c1.68,0.6,3.16,1.49,4.42,2.66L730.52,1418.79z"/>
			<path d="M749.06,1399.19l-5.62-4.53l12.57-15.6l6.46,5.36L749.06,1399.19z M743.83,1453.59v-45.62h8.96v45.62H743.83z"/>
			<path d="M781.01,1454.25c-5.6,0-9.79-1.16-12.59-3.47c-2.8-2.31-4.2-5.86-4.2-10.63c0-4.54,1.28-7.93,3.85-10.17
				c2.56-2.24,6.41-3.36,11.54-3.36h12.96l0.62,7.21h-13.54c-2.31,0-4.06,0.52-5.23,1.56s-1.76,2.63-1.76,4.77
				c0,2.31,0.78,4.03,2.33,5.14c1.55,1.11,3.88,1.67,6.99,1.67c3.4,0,5.95-0.37,7.65-1.1s2.55-1.88,2.55-3.43l0.92,6.42
				c-0.79,1.23-1.77,2.24-2.95,3.03s-2.51,1.38-4.02,1.78C784.62,1454.05,782.91,1454.25,781.01,1454.25z M792.17,1453.59v-28.92
				c0-2.99-0.8-5.31-2.39-6.96c-1.6-1.66-3.86-2.48-6.79-2.48c-1.79,0-3.55,0.27-5.3,0.81s-3.3,1.33-4.68,2.35l-6.55-4.48
				c1.73-2.08,4.01-3.7,6.83-4.86c2.83-1.16,5.97-1.74,9.43-1.74c5.71,0,10.14,1.48,13.27,4.44c3.13,2.96,4.7,7.13,4.7,12.52v29.31
				H792.17z"/>
		</g>
	</g>
	<g>
		<g>
			<path d="M304.07,1547.77v-7.78l22.28-29.71c1.29-1.7,2.29-3.46,3.01-5.27c0.72-1.82,1.08-3.53,1.08-5.14v-0.09
				c0-2.55-0.75-4.53-2.24-5.93s-3.62-2.11-6.37-2.11c-2.58,0-4.68,0.77-6.31,2.31c-1.63,1.54-2.61,3.71-2.97,6.53v0.04h-9.27v-0.04
				c0.79-5.51,2.8-9.78,6.02-12.81c3.22-3.03,7.37-4.55,12.44-4.55c5.74,0,10.18,1.45,13.32,4.35c3.13,2.9,4.7,7,4.7,12.3v0.04
				c0,2.26-0.47,4.62-1.41,7.1c-0.94,2.48-2.24,4.84-3.91,7.1l-18.5,25.14h24.17v8.53H304.07z"/>
			<path d="M369.77,1548.42c-6.09,0-10.66-1.63-13.69-4.9s-4.55-7.68-4.55-13.25v-29.05c0-5.65,1.54-10.09,4.61-13.32
				s7.62-4.83,13.62-4.83c6.04,0,10.58,1.6,13.65,4.81c3.06,3.21,4.59,7.65,4.59,13.34v29.05c0,5.65-1.53,10.09-4.59,13.32
				C380.35,1546.81,375.81,1548.42,369.77,1548.42z M369.77,1539.9c3.28,0,5.65-0.86,7.1-2.57c1.45-1.71,2.18-4.06,2.18-7.05v-29.05
				c0-3.02-0.73-5.38-2.18-7.08s-3.82-2.55-7.1-2.55c-3.28,0-5.65,0.85-7.1,2.55s-2.18,4.06-2.18,7.08v29.05
				c0,2.99,0.73,5.34,2.18,7.05C364.12,1539.04,366.49,1539.9,369.77,1539.9z"/>
			<path d="M448.21,1513.36h22.15v11.16c0,4.8-0.93,9-2.79,12.59c-1.86,3.59-4.46,6.37-7.8,8.35c-3.34,1.98-7.27,2.97-11.78,2.97
				c-4.54,0-8.51-0.93-11.91-2.79c-3.4-1.86-6.04-4.48-7.91-7.87c-1.88-3.38-2.81-7.33-2.81-11.84v-18.85
				c0-4.8,0.93-8.99,2.79-12.57c1.86-3.57,4.46-6.35,7.8-8.33c3.34-1.98,7.27-2.97,11.78-2.97c3.72,0,7.11,0.79,10.17,2.37
				c3.06,1.58,5.63,3.79,7.71,6.64c2.08,2.84,3.49,6.17,4.22,9.98h-9.71c-0.82-3.31-2.42-5.84-4.79-7.6s-4.91-2.64-7.6-2.64
				c-3.98,0-7.18,1.38-9.58,4.15c-2.4,2.77-3.6,6.42-3.6,10.96v18.85c0,4.16,1.23,7.49,3.69,10c2.46,2.51,5.71,3.76,9.76,3.76
				c3.98,0,7.18-1.32,9.58-3.96c2.4-2.64,3.6-6.31,3.6-11.03v-2.77h-12.96V1513.36z"/>
			<path d="M502.66,1548.42c-6.36,0-11.28-1.77-14.77-5.32c-3.49-3.54-5.23-8.58-5.23-15.12v-5.14c0-6.8,1.68-12.06,5.03-15.78
				c3.35-3.72,8.08-5.58,14.17-5.58c5.74,0,10.19,2.11,13.34,6.33c3.15,4.22,4.72,10.14,4.72,17.75v2.99h-30.76v-7.21h22.24
				c-0.26-3.69-1.22-6.58-2.88-8.66c-1.66-2.08-3.87-3.12-6.66-3.12c-3.37,0-5.99,1.11-7.87,3.34c-1.88,2.23-2.81,5.38-2.81,9.45
				v5.8c0,3.78,1,6.68,3.01,8.7c2.01,2.02,4.83,3.03,8.46,3.03c1.82,0,3.62-0.37,5.41-1.1c1.79-0.73,3.38-1.76,4.79-3.08l5.89,5.89
				c-2.26,2.17-4.79,3.85-7.6,5.03C508.33,1547.83,505.5,1548.42,502.66,1548.42z"/>
			<path d="M532.24,1547.77v-45.62h8.97v45.62H532.24z M559.92,1547.77v-27.64c0-3.22-0.83-5.71-2.48-7.47s-4.01-2.64-7.05-2.64
				c-2.93,0-5.19,0.78-6.79,2.33c-1.6,1.55-2.39,3.74-2.39,6.55l-0.92-8.79c1.41-2.75,3.24-4.88,5.52-6.37
				c2.27-1.49,4.78-2.24,7.54-2.24c4.95,0,8.78,1.62,11.49,4.86s4.07,7.81,4.07,13.73v27.69H559.92z"/>
			<path d="M601.19,1548.42c-6.36,0-11.28-1.77-14.77-5.32s-5.23-8.58-5.23-15.12v-5.14c0-6.8,1.68-12.06,5.03-15.78
				c3.35-3.72,8.08-5.58,14.17-5.58c5.74,0,10.19,2.11,13.34,6.33c3.15,4.22,4.72,10.14,4.72,17.75v2.99H587.7v-7.21h22.24
				c-0.26-3.69-1.22-6.58-2.88-8.66c-1.66-2.08-3.88-3.12-6.66-3.12c-3.37,0-5.99,1.11-7.87,3.34c-1.88,2.23-2.81,5.38-2.81,9.45
				v5.8c0,3.78,1,6.68,3.01,8.7c2.01,2.02,4.83,3.03,8.46,3.03c1.82,0,3.62-0.37,5.41-1.1c1.79-0.73,3.38-1.76,4.79-3.08l5.89,5.89
				c-2.26,2.17-4.79,3.85-7.6,5.03C606.86,1547.83,604.03,1548.42,601.19,1548.42z"/>
			<path d="M630.76,1547.77v-45.62h8.96v45.62H630.76z M655.85,1512.96c-0.79-0.97-1.79-1.7-2.99-2.2s-2.59-0.75-4.17-0.75
				c-2.84,0-5.05,0.78-6.61,2.35c-1.57,1.57-2.35,3.74-2.35,6.53l-0.92-8.79c1.38-2.7,3.19-4.8,5.43-6.33s4.71-2.29,7.4-2.29
				c2.08,0,3.96,0.3,5.65,0.9s3.16,1.49,4.42,2.66L655.85,1512.96z"/>
			<path d="M683.76,1548.42c-5.6,0-9.79-1.16-12.59-3.47s-4.2-5.86-4.2-10.63c0-4.54,1.28-7.93,3.84-10.17
				c2.56-2.24,6.41-3.36,11.54-3.36h12.96l0.62,7.21H682.4c-2.31,0-4.06,0.52-5.23,1.56c-1.17,1.04-1.76,2.63-1.76,4.77
				c0,2.31,0.78,4.03,2.33,5.14s3.88,1.67,6.99,1.67c3.4,0,5.95-0.37,7.65-1.1c1.7-0.73,2.55-1.88,2.55-3.43l0.92,6.42
				c-0.79,1.23-1.77,2.24-2.94,3.03c-1.17,0.79-2.51,1.38-4.02,1.78C687.37,1548.23,685.66,1548.42,683.76,1548.42z M694.92,1547.77
				v-28.92c0-2.99-0.8-5.31-2.4-6.96s-3.86-2.48-6.79-2.48c-1.79,0-3.55,0.27-5.29,0.81c-1.74,0.54-3.3,1.33-4.68,2.35l-6.55-4.48
				c1.73-2.08,4.01-3.7,6.83-4.86c2.83-1.16,5.97-1.74,9.43-1.74c5.71,0,10.14,1.48,13.27,4.44s4.7,7.13,4.7,12.52v29.31H694.92z"/>
			<path d="M726.04,1483.87v52.12c0,1.08,0.24,1.93,0.72,2.55s1.16,0.92,2.04,0.92h4.22v8.53h-5.27c-3.37,0-5.99-1.05-7.87-3.16
				c-1.88-2.11-2.81-5.08-2.81-8.92v-52.03H726.04z"/>
		</g>
	</g>
	<g id="Trofeo_00000075841230601815446680000009599857215702276749_">
		<path d="M192.12,1401.15c0.05,0.05,0.1,0.13,0.16,0.15c8.16,2.93,16.32,5.86,24.48,8.8c5.39,1.94,10.79,3.86,16.17,5.82
			c3.27,1.19,4.65,3.89,3.73,7.2c-0.26,0.94-0.62,1.86-0.92,2.77c0.16,0.12,0.24,0.19,0.34,0.25c4.08,2.32,6.22,6.45,5.59,10.81
			c-0.63,4.42-4,7.93-8.63,8.85c-1.64,0.33-3.33,0.45-5.01,0.58c-2.59,0.21-5.11,0.49-7.31,2.2c-1.05,0.82-2.45,1.21-3.73,1.72
			c-3.25,1.3-6.71,1.54-10.14,1.66c-1.83,0.07-2.59,0.89-2.91,2.45c-0.06,0.31,0.05,0.81,0.28,1c1.16,0.99,1.84,2.22,2.14,3.69
			c0.36,1.76,0.78,3.51,1.08,5.28c0.13,0.74,0.45,1.09,1.14,1.37c12.96,5.24,25.91,10.5,38.87,15.76c2.22,0.9,4.43,1.81,6.69,2.73
			c-0.47,1.25-0.89,2.38-1.35,3.6c-8.93-3.57-17.75-7.1-26.66-10.66c-2.17,6.51-4.31,12.94-6.48,19.43
			c11.56,4.79,23,9.54,34.49,14.3c-0.55,1.22-1.04,2.29-1.53,3.38c-0.49-0.19-0.88-0.33-1.27-0.49c-17.5-7.25-35-14.51-52.51-21.76
			c-0.41-0.17-0.88-0.38-1.3-0.33c-2.81,0.3-5.62,0.64-8.42,1.04c-0.34,0.05-0.79,0.44-0.91,0.76c-1.03,3-2.03,6.01-2.96,9.04
			c-0.11,0.36,0.05,0.97,0.32,1.24c1.27,1.32,2.62,2.57,3.95,3.84c0.98,0.93,1.64,2.03,1.76,3.38c0.26,2.87-1.5,5.1-2.27,7.71
			c-10.65-4.17-21.13-8.28-31.64-12.4c0.53-1.43,1-2.72,1.48-4.01c1.12-3,2.77-4.16,5.96-4.2c1.68-0.02,3.37-0.03,5.05,0.01
			c0.64,0.02,0.95-0.22,1.17-0.81c0.55-1.43,1.18-2.82,1.76-4.23c0.43-1.04,0.85-2.09,1.24-3.05c-0.14-0.17-0.15-0.21-0.19-0.22
			c-2.56-1.29-5.13-2.56-7.68-3.86c-3.28-1.66-4.35-4.4-3.08-7.83c1.91-5.16,3.84-10.31,5.76-15.46c1.63-4.37,3.22-8.75,4.89-13.1
			c1.16-3.03,4.72-4.63,7.42-3.43c2.41,1.07,4.82,2.13,7.23,3.18c0.3,0.13,0.62,0.21,0.97,0.33c0.23-0.54,0.38-1.02,0.62-1.45
			c0.53-0.92,0.38-1.61-0.36-2.4c-1.41-1.5-2.71-3.12-4.03-4.71c-2.51-3.04-4.1-6.5-4.83-10.38c-0.14-0.74-0.52-1.51-0.99-2.11
			c-1.55-1.99-3.22-3.89-4.8-5.86c-2.66-3.32-3.01-7.62-0.8-11.26c2.49-4.09,6.15-5.77,10.9-4.88c1.98-4.13,1.98-4.13,4.72-5.46
			C190.59,1401.15,191.35,1401.15,192.12,1401.15z M200.03,1453.54c0.53-1.32,1.07-2.57,1.53-3.85c0.25-0.71,0.64-0.95,1.41-1.04
			c3.68-0.4,7.43-0.54,11-1.42c6.3-1.54,10.86-5.51,13.47-11.47c1.89-4.34,3.53-8.78,5.26-13.19c0.59-1.51,0.18-2.38-1.36-2.94
			c-13.11-4.73-26.22-9.44-39.33-14.16c-1.48-0.53-2.39-0.24-2.81,1.02c-1.61,4.85-3.43,9.66-4.67,14.61
			c-1.58,6.33-0.13,12.22,3.89,17.38c1.88,2.41,3.94,4.68,5.95,6.98c0.42,0.47,0.49,0.86,0.25,1.42c-0.49,1.2-0.92,2.42-1.44,3.78
			C195.5,1451.65,197.71,1452.57,200.03,1453.54z M185.36,1457.17c-0.38,1.2-0.74,2.34-1.13,3.61c-3.12-1.01-6.16-2-9.33-3.03
			c-0.77,2.04-1.51,4.02-2.29,6.08c3.02,1.03,5.93,2.03,8.94,3.06c-0.38,1.21-0.74,2.36-1.14,3.6c-3.07-1.02-6.06-2.01-9.14-3.03
			c-0.76,2.02-1.49,3.97-2.28,6.07c2.94,0.97,5.78,1.9,8.75,2.88c-0.39,1.21-0.75,2.35-1.14,3.59c-3.02-1.02-5.94-2-8.93-3.01
			c-0.35,0.9-0.72,1.7-0.98,2.53c-0.3,0.96-0.01,1.73,0.94,2.19c4.97,2.45,9.92,4.93,14.92,7.32c0.66,0.32,1.57,0.27,2.35,0.18
			c3.69-0.39,7.37-0.84,11.04-1.33c0.41-0.05,0.97-0.47,1.09-0.85c2.24-6.58,4.42-13.18,6.61-19.78c0.09-0.28,0.2-0.61,0.15-0.89
			c-0.4-2.22-0.77-4.45-1.31-6.63c-0.15-0.6-0.78-1.27-1.36-1.53c-6.86-3-13.75-5.94-20.63-8.87c-1.63-0.69-2.5-0.31-3.14,1.33
			c-0.43,1.1-0.84,2.21-1.31,3.43C179.18,1455.14,182.19,1456.13,185.36,1457.17z M209.78,1487.26c1.65-4.96,3.28-9.87,4.93-14.85
			c-2.56-1.03-5.03-2.02-7.61-3.05c-2.16,6.41-4.3,12.77-6.48,19.24c5.13,2.16,10.22,4.29,15.43,6.48
			c2.16-6.48,4.29-12.87,6.48-19.41c-1.44-0.57-2.84-1.13-4.37-1.74c-1.59,4.82-3.16,9.59-4.78,14.48
			C212.14,1488.02,211.02,1487.66,209.78,1487.26z M186.53,1510c-0.86-0.82-1.85-1.53-2.56-2.46c-2.94-3.79-7.39-4.63-11.57-5.66
			c-2.52-0.62-5.33-0.18-8-0.07c-1.21,0.05-1.62,1.08-1.8,2.27c8.06,3.21,16.1,6.41,24.21,9.64
			C187.85,1512.13,187.77,1511.19,186.53,1510z M233.1,1442c2.69-0.65,4.44-2.98,4.69-5.86c0.22-2.64-1.14-5.08-3.62-6.34
			c-1.96,4.32-3.29,8.94-6.57,12.95C229.66,1442.48,231.42,1442.41,233.1,1442z M177.69,1412.77c-1.45,2.08-1.66,4.36-0.42,6.58
			c0.73,1.31,1.8,2.43,2.68,3.59c1.26-4.23,2.5-8.39,3.75-12.61C181.23,1410.02,179.15,1410.69,177.69,1412.77z M174.9,1498.31
			c2.29,0.77,4.51,1.52,6.84,2.3c0.81-2.38,1.61-4.71,2.32-6.78c-2.1-0.83-4.09-1.62-6.17-2.43
			C176.93,1493.64,175.94,1495.9,174.9,1498.31z"/>
		<path d="M152.35,1474.41c-1.3,0-2.47,0-3.77,0c0.16-2.93-0.23-5.65-2.16-7.93c-1.91-2.26-4.4-3.31-7.27-3.44c0-1.33,0-2.54,0-3.76
			c3.01-0.15,5.48-1.26,7.36-3.55c1.88-2.29,2.2-5.03,2.06-7.83c1.39,0,2.56,0,3.83,0c-0.17,2.93,0.25,5.64,2.15,7.93
			c1.89,2.28,4.4,3.31,7.32,3.49c0,1.26,0,2.44,0,3.66C155.02,1463.82,152.17,1467.91,152.35,1474.41z M148.45,1459.18
			c-0.73,0.72-1.56,1.33-1.87,1.5c1.45,1.44,2.9,2.88,3.88,3.86c0.95-0.94,2.42-2.38,3.43-3.38c-0.94-0.93-2.41-2.38-3.89-3.84
			c0.16-0.17,0.31-0.33,0.47-0.5C149.8,1457.62,149.18,1458.46,148.45,1459.18z"/>
		<path d="M146.75,1424.86c0-1.22,0-2.42,0-3.6c6.84-0.83,9.7-4.91,9.54-11.48c1.28,0,2.45,0,3.73,0c-0.12,2.91,0.26,5.64,2.16,7.92
			c1.89,2.28,4.39,3.34,7.33,3.49c0,1.28,0,2.49,0,3.68c-6.84,0.82-9.69,4.91-9.54,11.47c-1.27,0-2.44,0-3.68,0
			C156.45,1429.71,153.54,1425.67,146.75,1424.86z M154.71,1423.04c0.97,0.97,2.43,2.43,3.4,3.4c0.97-0.96,2.42-2.4,3.41-3.38
			c-0.95-0.96-2.4-2.42-3.39-3.42C157.15,1420.62,155.7,1422.06,154.71,1423.04z"/>
		<path d="M240.12,1447.89c1.29,0,2.45,0,3.75,0c-0.16,2.92,0.25,5.64,2.15,7.93c1.89,2.27,4.39,3.32,7.31,3.48
			c0,1.29,0,2.49,0,3.68c-6.84,0.82-9.69,4.9-9.53,11.44c-1.29,0-2.46,0-3.74,0c0.14-2.92-0.27-5.63-2.17-7.91
			c-1.9-2.27-4.39-3.33-7.33-3.47c0-1.28,0-2.45,0-3.67C237.43,1458.51,240.3,1454.44,240.12,1447.89z M241.96,1457.72
			c-0.97,0.99-2.39,2.44-3.35,3.42c0.94,0.93,2.39,2.38,3.39,3.38c0.93-0.93,2.39-2.39,3.37-3.37
			C244.43,1460.21,242.97,1458.74,241.96,1457.72z"/>
		<path d="M194.82,1437.62c0.92-0.92,1.75-1.75,2.64-2.64c-2.46-2.59-3.58-5.73-3.55-9.33c0.03-3.39,0.93-6.56,2.28-9.62
			c0.49-1.11,1.08-2.18,1.65-3.32c-1.02-0.66-2.04-1.32-3.09-2c-0.18,0.22-0.35,0.38-0.46,0.57c-2.69,4.72-4.4,9.74-4.22,15.24
			C190.23,1430.82,191.77,1434.55,194.82,1437.62z"/>
	</g>
</g>
<g id="Nombre">
	<g>
		<g>
			<path d="M161.58,1065.53l24.43-63.9h7.65l24.43,63.9h-12.96l-15.29-43.64l-15.29,43.64H161.58z M173.31,1055.29v-11.6h33.62v11.6
				H173.31z"/>
			<path d="M226,1065.53v-63.9h12.04v63.9H226z M231.5,1040.75v-11.6h20.43c2.17,0,3.93-0.72,5.27-2.18
				c1.35-1.45,2.02-3.36,2.02-5.73c0-2.43-0.67-4.37-2-5.82c-1.33-1.45-3.1-2.18-5.3-2.18H231.5v-11.6h20.13
				c4.04,0,7.57,0.81,10.57,2.44c3,1.62,5.34,3.9,7.01,6.83s2.5,6.37,2.5,10.33c0,3.93-0.83,7.35-2.5,10.28s-4.01,5.2-7.03,6.81
				c-3.02,1.61-6.53,2.42-10.55,2.42H231.5z"/>
			<path d="M282.04,1065.53v-63.9h12.04v63.9H282.04z M286.39,1013.24v-11.6h38.45v11.6H286.39z M286.39,1039.6V1028H320v11.6
				H286.39z M286.39,1065.53v-11.6h38.45v11.6H286.39z"/>
			<path d="M335.82,1065.53v-63.9h12.04v63.9H335.82z M341.19,1065.53v-11.6h37.44v11.6H341.19z"/>
			<path d="M387.42,1065.53v-63.9h12.04v63.9H387.42z M392.78,1065.53v-11.6h37.44v11.6H392.78z"/>
			<path d="M450.61,1001.64v63.9h-12.48v-63.9H450.61z"/>
			<path d="M463.79,1065.53v-63.9h12.04v63.9H463.79z M469.86,1065.53v-11.6h15.34c3.96,0,7.02-0.96,9.18-2.88
				c2.17-1.92,3.25-4.61,3.25-8.06v-18.81c0-3.49-1.08-6.18-3.25-8.09s-5.23-2.86-9.18-2.86h-15.34v-11.6h15.07
				c8.03,0,14.23,2,18.61,6c4.38,4,6.57,9.63,6.57,16.9v18.11c0,4.54-0.94,8.53-2.81,11.98s-4.68,6.12-8.42,8.04
				c-3.73,1.92-8.4,2.88-14,2.88H469.86z"/>
			<path d="M544.87,1066.19c-4.69,0-8.78-0.97-12.28-2.92c-3.5-1.95-6.22-4.69-8.15-8.24s-2.9-7.68-2.9-12.39v-18.11
				c0-4.75,0.97-8.88,2.9-12.42c1.93-3.53,4.65-6.27,8.15-8.22c3.5-1.95,7.59-2.92,12.28-2.92s8.78,0.97,12.28,2.92
				s6.22,4.69,8.15,8.22c1.93,3.53,2.9,7.67,2.9,12.42v18.11c0,4.72-0.97,8.85-2.9,12.39s-4.65,6.29-8.15,8.24
				C553.65,1065.22,549.56,1066.19,544.87,1066.19z M544.87,1054.15c3.28,0,5.91-1.03,7.89-3.08c1.98-2.05,2.97-4.76,2.97-8.13
				v-18.72c0-3.4-0.99-6.12-2.97-8.15c-1.98-2.04-4.61-3.05-7.89-3.05s-5.91,1.02-7.89,3.05c-1.98,2.04-2.97,4.75-2.97,8.15v18.72
				c0,3.37,0.99,6.08,2.97,8.13C538.96,1053.12,541.59,1054.15,544.87,1054.15z"/>
			<path d="M578.09,1080.74v-27.25h12.04v15.73L578.09,1080.74z"/>
			<path d="M625.51,1065.49v-63.85h14.72l23.77,48.96l-1.05,1.14v-50.1h11.51v63.85h-14.81l-23.69-48.21l1.05-1.14v49.35H625.51z"/>
			<path d="M706.02,1066.19c-6.27,0-11.12-1.74-14.55-5.21c-3.43-3.47-5.14-8.36-5.14-14.66v-7.43c0-6.24,1.71-11.07,5.14-14.5
				s8.28-5.14,14.55-5.14s11.12,1.71,14.55,5.14s5.14,8.26,5.14,14.5v7.56c0,6.27-1.71,11.13-5.14,14.57
				S712.29,1066.19,706.02,1066.19z M705.98,1054.59c2.43,0,4.32-0.71,5.67-2.13c1.35-1.42,2.02-3.42,2.02-6v-7.56
				c0-2.55-0.67-4.53-2.02-5.93s-3.24-2.11-5.67-2.11c-2.4,0-4.27,0.7-5.6,2.11c-1.33,1.41-2,3.38-2,5.93v7.56c0,2.58,0.67,4.58,2,6
				C701.71,1053.88,703.57,1054.59,705.98,1054.59z"/>
			<path d="M736.69,1065.53v-45.62h12.04v45.62H736.69z M763.28,1065.53v-26.32c0-2.67-0.65-4.72-1.96-6.17
				c-1.3-1.45-3.17-2.17-5.6-2.17c-2.23,0-3.95,0.62-5.16,1.87c-1.22,1.25-1.82,3-1.82,5.25l-0.92-10.11
				c1.32-2.75,2.98-4.88,4.99-6.37s4.4-2.24,7.19-2.24c4.89,0,8.67,1.74,11.34,5.21c2.67,3.47,4,8.37,4,14.7v26.37H763.28z
				 M789.87,1065.53v-26.32c0-2.67-0.64-4.72-1.91-6.17c-1.27-1.45-3.08-2.17-5.43-2.17c-2.31,0-4.09,0.7-5.34,2.09
				c-1.25,1.39-1.87,3.36-1.87,5.91l-2.24-10.55c1.44-2.9,3.31-5.13,5.62-6.7c2.31-1.57,4.86-2.35,7.65-2.35
				c4.95,0,8.78,1.74,11.49,5.21c2.71,3.47,4.06,8.37,4.06,14.7v26.37H789.87z"/>
			<path d="M813.77,1065.53v-63.9h12.04v63.9H813.77z M836.41,1066.19c-2.67,0-4.97-0.68-6.9-2.04c-1.93-1.36-3.37-3.29-4.31-5.78
				l0.62-10.42c0,1.49,0.26,2.77,0.79,3.82s1.3,1.86,2.31,2.42c1.01,0.56,2.23,0.83,3.67,0.83c2.26,0,4.01-0.75,5.25-2.24
				c1.24-1.49,1.87-3.6,1.87-6.33v-7.25c0-2.78-0.62-4.94-1.87-6.48c-1.25-1.54-3-2.31-5.25-2.31c-1.44,0-2.66,0.29-3.67,0.86
				c-1.01,0.57-1.78,1.4-2.31,2.48s-0.79,2.4-0.79,3.96l-0.92-10.11c1.23-2.67,2.85-4.72,4.86-6.17c2.01-1.45,4.23-2.17,6.66-2.17
				c4.89,0,8.67,1.74,11.34,5.21c2.67,3.47,4,8.37,4,14.7v7.29c0,6.27-1.33,11.13-4,14.57S841.3,1066.19,836.41,1066.19z"/>
			<path d="M862.73,1065.53v-45.62h12.92v45.62H862.73z M888.39,1032.62c-0.56-0.59-1.27-1.03-2.13-1.32
				c-0.87-0.29-1.85-0.44-2.97-0.44c-2.43,0-4.31,0.78-5.65,2.35c-1.33,1.57-2,3.74-2,6.53l-0.92-11.87c1.26-2.7,2.89-4.8,4.9-6.33
				s4.21-2.29,6.61-2.29c1.9,0,3.63,0.3,5.16,0.9c1.54,0.6,2.88,1.49,4.02,2.66L888.39,1032.62z"/>
			<path d="M920.69,1066.19c-6.62,0-11.75-1.78-15.4-5.34c-3.65-3.56-5.47-8.59-5.47-15.1v-5.14c0-6.8,1.75-12.06,5.25-15.78
				c3.5-3.72,8.44-5.58,14.83-5.58c6.04,0,10.7,2.22,14,6.66c3.29,4.44,4.94,10.69,4.94,18.74v2.99h-31.2v-8.13h20.21l-0.13-1.05
				c-0.32-2.61-1.14-4.64-2.46-6.09c-1.32-1.45-3.11-2.18-5.36-2.18c-2.9,0-5.15,0.86-6.75,2.59c-1.6,1.73-2.4,4.17-2.4,7.34v5.8
				c0,3.11,0.87,5.51,2.61,7.21s4.18,2.55,7.32,2.55c1.61,0,3.21-0.29,4.79-0.86c1.58-0.57,3.02-1.38,4.31-2.44l7.87,6.99
				c-2.37,2.17-5.04,3.85-8,5.03C926.7,1065.6,923.71,1066.19,920.69,1066.19z"/>
		</g>
	</g>
</g>
<g id="Logo">
	<g>
		<g>
			<path d="M78.32,109.44v-42.6h8.03v42.6H78.32z M81.25,74.58v-7.73h25.05v7.73H81.25z M81.25,92.54V84.8h21.83v7.73H81.25z"/>
			<path d="M111.86,109.44v-42.6h8.03v42.6H111.86z M115.43,109.44v-7.73h24.96v7.73H115.43z"/>
			<path d="M160.93,109.88c-3.12,0-5.85-0.65-8.19-1.95c-2.33-1.3-4.15-3.13-5.43-5.49c-1.29-2.36-1.93-5.12-1.93-8.26V82.11
				c0-3.16,0.64-5.92,1.93-8.28c1.29-2.35,3.1-4.18,5.43-5.48c2.33-1.3,5.06-1.95,8.19-1.95c3.12,0,5.85,0.65,8.19,1.95
				c2.33,1.3,4.15,3.12,5.43,5.48c1.29,2.35,1.93,5.11,1.93,8.28v12.07c0,3.15-0.64,5.9-1.93,8.26c-1.29,2.36-3.1,4.19-5.43,5.49
				C166.79,109.23,164.06,109.88,160.93,109.88z M160.93,101.85c2.19,0,3.94-0.68,5.26-2.05c1.32-1.37,1.98-3.17,1.98-5.42V81.9
				c0-2.27-0.66-4.08-1.98-5.43c-1.32-1.36-3.07-2.04-5.26-2.04c-2.19,0-3.94,0.68-5.26,2.04c-1.32,1.36-1.98,3.17-1.98,5.43v12.48
				c0,2.25,0.66,4.05,1.98,5.42C156.99,101.17,158.75,101.85,160.93,101.85z"/>
			<path d="M184.99,109.44v-42.6h8.03v42.6H184.99z M190.84,103.23l-1.03-10.43l17.08-25.96h10.11L190.84,103.23z M209.27,109.44
				l-12.36-21.56l6.91-4.37l14.97,25.93H209.27z"/>
			<path d="M238.16,109.88c-3.12,0-5.85-0.65-8.19-1.95c-2.33-1.3-4.15-3.13-5.43-5.49c-1.29-2.36-1.93-5.12-1.93-8.26V82.11
				c0-3.16,0.64-5.92,1.93-8.28c1.29-2.35,3.1-4.18,5.43-5.48c2.33-1.3,5.06-1.95,8.19-1.95c3.12,0,5.85,0.65,8.19,1.95
				c2.33,1.3,4.15,3.12,5.43,5.48c1.29,2.35,1.93,5.11,1.93,8.28v12.07c0,3.15-0.64,5.9-1.93,8.26c-1.29,2.36-3.1,4.19-5.43,5.49
				C244.01,109.23,241.28,109.88,238.16,109.88z M238.16,101.85c2.19,0,3.94-0.68,5.26-2.05c1.32-1.37,1.98-3.17,1.98-5.42V81.9
				c0-2.27-0.66-4.08-1.98-5.43c-1.32-1.36-3.07-2.04-5.26-2.04c-2.19,0-3.94,0.68-5.26,2.04c-1.32,1.36-1.98,3.17-1.98,5.43v12.48
				c0,2.25,0.66,4.05,1.98,5.42C234.22,101.17,235.97,101.85,238.16,101.85z"/>
			<path d="M276.89,109.88c-3.12,0-5.85-0.65-8.19-1.95c-2.33-1.3-4.15-3.13-5.43-5.49c-1.29-2.36-1.93-5.12-1.93-8.26V82.11
				c0-3.16,0.64-5.92,1.93-8.28c1.29-2.35,3.1-4.18,5.43-5.48c2.33-1.3,5.06-1.95,8.19-1.95c3.12,0,5.85,0.65,8.19,1.95
				c2.33,1.3,4.15,3.12,5.43,5.48c1.29,2.35,1.93,5.11,1.93,8.28v12.07c0,3.15-0.64,5.9-1.93,8.26c-1.29,2.36-3.1,4.19-5.43,5.49
				C282.74,109.23,280.01,109.88,276.89,109.88z M276.89,101.85c2.19,0,3.94-0.68,5.26-2.05c1.32-1.37,1.98-3.17,1.98-5.42V81.9
				c0-2.27-0.66-4.08-1.98-5.43c-1.32-1.36-3.07-2.04-5.26-2.04c-2.19,0-3.94,0.68-5.26,2.04c-1.32,1.36-1.98,3.17-1.98,5.43v12.48
				c0,2.25,0.66,4.05,1.98,5.42C272.95,101.17,274.7,101.85,276.89,101.85z"/>
			<path d="M300.94,109.44v-42.6h8.03v42.6H300.94z M304.46,109.44v-7.73h13.59c1.84,0,3.26-0.44,4.26-1.33
				c1.01-0.89,1.51-2.13,1.51-3.74v-0.09c0-1.62-0.5-2.88-1.51-3.76c-1.01-0.89-2.43-1.33-4.26-1.33h-13.59v-7.73h13.59
				c1.66,0,2.94-0.42,3.85-1.26c0.91-0.84,1.36-2.02,1.36-3.54c0-1.39-0.45-2.46-1.36-3.21c-0.91-0.75-2.19-1.13-3.85-1.13h-13.59
				v-7.73h13.86c4.14,0,7.35,1.01,9.62,3.02c2.27,2.01,3.41,4.85,3.41,8.53c0,2.48-0.73,4.53-2.18,6.14
				c-1.46,1.61-3.51,2.64-6.17,3.09c2.83,0.39,5.02,1.47,6.58,3.24c1.55,1.77,2.33,4.07,2.33,6.9v0.09c0,3.69-1.14,6.55-3.43,8.57
				s-5.51,3.03-9.67,3.03H304.46z"/>
			<path class="st1" d="M370.32,109.88c-2.97,0-5.57-0.66-7.79-1.98s-3.96-3.17-5.19-5.55c-1.23-2.38-1.85-5.17-1.85-8.35V82.31
				c0-3.2,0.62-6,1.85-8.38c1.23-2.38,2.96-4.23,5.19-5.55s4.82-1.98,7.79-1.98c2.46,0,4.71,0.53,6.75,1.58
				c2.04,1.05,3.75,2.53,5.13,4.42c1.38,1.89,2.31,4.11,2.8,6.65h-6.12c-0.37-1.37-0.99-2.56-1.86-3.59
				c-0.87-1.03-1.89-1.82-3.06-2.39c-1.17-0.57-2.38-0.85-3.63-0.85c-2.62,0-4.72,0.92-6.31,2.77c-1.59,1.85-2.39,4.28-2.39,7.31V94
				c0,3.03,0.8,5.46,2.39,7.29c1.59,1.84,3.7,2.75,6.31,2.75c1.86,0,3.6-0.59,5.24-1.76s2.74-2.86,3.31-5.07H385
				c-0.49,2.54-1.43,4.76-2.81,6.65c-1.39,1.89-3.1,3.37-5.13,4.42C375.02,109.35,372.78,109.88,370.32,109.88z"/>
			<path class="st1" d="M398.88,66.84v34.75c0,0.72,0.16,1.29,0.48,1.7s0.78,0.62,1.36,0.62h2.81v5.68h-3.52
				c-2.25,0-3.99-0.7-5.24-2.11c-1.25-1.41-1.88-3.39-1.88-5.95V66.84H398.88z"/>
			<path class="st1" d="M420,109.88c-3.73,0-6.53-0.77-8.39-2.31c-1.87-1.54-2.8-3.91-2.8-7.09c0-3.03,0.85-5.29,2.56-6.78
				c1.71-1.49,4.27-2.24,7.69-2.24h8.64l0.41,4.8h-9.02c-1.54,0-2.71,0.35-3.49,1.04c-0.78,0.69-1.17,1.75-1.17,3.18
				c0,1.54,0.52,2.69,1.55,3.43c1.04,0.74,2.59,1.11,4.66,1.11c2.27,0,3.96-0.24,5.1-0.73c1.13-0.49,1.7-1.25,1.7-2.29l0.62,4.28
				c-0.53,0.82-1.18,1.49-1.96,2.02c-0.78,0.53-1.67,0.92-2.68,1.19C422.41,109.75,421.27,109.88,420,109.88z M427.45,109.44V90.16
				c0-1.99-0.53-3.54-1.6-4.64c-1.06-1.1-2.57-1.66-4.53-1.66c-1.19,0-2.37,0.18-3.53,0.54c-1.16,0.36-2.2,0.88-3.12,1.57
				l-4.37-2.99c1.15-1.39,2.67-2.47,4.56-3.24c1.88-0.77,3.98-1.16,6.28-1.16c3.81,0,6.76,0.99,8.85,2.96
				c2.09,1.97,3.13,4.76,3.13,8.35v19.54H427.45z"/>
			<path class="st1" d="M452.96,109.88c-2.7,0-5.14-0.4-7.34-1.19s-4.17-1.98-5.9-3.56l3.54-4.37c1.66,1.25,3.3,2.19,4.91,2.81
				c1.61,0.63,3.21,0.94,4.79,0.94c2.36,0,4.14-0.37,5.32-1.1c1.18-0.73,1.77-1.83,1.77-3.3c0-1.13-0.4-1.93-1.19-2.4
				s-1.83-0.78-3.11-0.92c-1.28-0.15-2.65-0.27-4.12-0.37c-1.23-0.1-2.45-0.25-3.66-0.45c-1.21-0.21-2.31-0.58-3.31-1.11
				c-1-0.54-1.79-1.33-2.39-2.39c-0.6-1.05-0.89-2.47-0.89-4.25c0-3.22,0.99-5.63,2.96-7.24c1.97-1.6,4.91-2.4,8.82-2.4
				c2.38,0,4.6,0.32,6.65,0.97s3.97,1.63,5.77,2.96l-3.6,4.37c-1.52-0.98-3.02-1.71-4.5-2.2c-1.48-0.49-2.92-0.73-4.32-0.73
				c-2.03,0-3.56,0.35-4.57,1.04c-1.02,0.69-1.52,1.73-1.52,3.12c0,0.92,0.35,1.58,1.05,1.98c0.7,0.4,1.63,0.66,2.78,0.78
				c1.15,0.12,2.39,0.22,3.72,0.32c1.27,0.08,2.55,0.22,3.85,0.42c1.3,0.21,2.49,0.6,3.59,1.19c1.09,0.59,1.97,1.46,2.64,2.61
				c0.66,1.15,1,2.72,1,4.72c0,3.26-1.06,5.7-3.18,7.32C460.41,109.07,457.22,109.88,452.96,109.88z"/>
			<path class="st1" d="M473.33,72.82v-5.98h5.98v5.98H473.33z M473.33,109.44V79.03h5.98v30.41H473.33z"/>
			<path class="st1" d="M486.04,84.13v-5.1h15.21v5.1H486.04z M489.26,109.44V74.9c0-2.68,0.62-4.69,1.85-6.04s3.14-2.02,5.74-2.02
				h4.39v5.68h-4.28c-0.61,0-1.04,0.23-1.32,0.69c-0.27,0.46-0.41,1-0.41,1.63v34.6H489.26z"/>
			<path class="st1" d="M507.4,72.82v-5.98h5.98v5.98H507.4z M507.4,109.44V79.03h5.98v30.41H507.4z"/>
			<path class="st1" d="M534.73,109.88c-4.18,0-7.42-1.15-9.71-3.46c-2.3-2.3-3.44-5.56-3.44-9.76v-5.01c0-4.16,1.15-7.38,3.44-9.65
				c2.29-2.27,5.53-3.41,9.71-3.41c2.38,0,4.53,0.42,6.45,1.26c1.91,0.84,3.44,2.04,4.57,3.6l-4.31,3.87
				c-0.84-0.98-1.84-1.73-2.99-2.26c-1.15-0.53-2.36-0.79-3.63-0.79c-2.3,0-4.09,0.64-5.36,1.93c-1.27,1.29-1.9,3.11-1.9,5.45v5.01
				c0,2.4,0.63,4.26,1.9,5.57c1.27,1.31,3.06,1.96,5.36,1.96c1.27,0,2.48-0.28,3.63-0.85c1.15-0.57,2.15-1.37,2.99-2.4l4.31,4.16
				c-1.13,1.52-2.66,2.7-4.58,3.53S537.09,109.88,534.73,109.88z"/>
			<path class="st1" d="M562.07,109.88c-3.73,0-6.53-0.77-8.39-2.31c-1.87-1.54-2.8-3.91-2.8-7.09c0-3.03,0.85-5.29,2.56-6.78
				s4.27-2.24,7.69-2.24h8.64l0.41,4.8h-9.02c-1.54,0-2.71,0.35-3.49,1.04c-0.78,0.69-1.17,1.75-1.17,3.18
				c0,1.54,0.52,2.69,1.55,3.43c1.04,0.74,2.59,1.11,4.66,1.11c2.27,0,3.96-0.24,5.1-0.73c1.13-0.49,1.7-1.25,1.7-2.29l0.62,4.28
				c-0.53,0.82-1.18,1.49-1.96,2.02s-1.67,0.92-2.68,1.19S563.33,109.88,562.07,109.88z M569.51,109.44V90.16
				c0-1.99-0.53-3.54-1.6-4.64c-1.06-1.1-2.57-1.66-4.53-1.66c-1.19,0-2.37,0.18-3.53,0.54c-1.16,0.36-2.2,0.88-3.12,1.57
				l-4.37-2.99c1.15-1.39,2.67-2.47,4.56-3.24c1.88-0.77,3.98-1.16,6.28-1.16c3.81,0,6.76,0.99,8.85,2.96
				c2.09,1.97,3.13,4.76,3.13,8.35v19.54H569.51z"/>
			<path class="st1" d="M596.55,109.88c-4.18,0-7.42-1.15-9.71-3.46c-2.29-2.3-3.44-5.56-3.44-9.76v-5.01
				c0-4.16,1.15-7.38,3.44-9.65c2.29-2.27,5.53-3.41,9.71-3.41c2.38,0,4.53,0.42,6.45,1.26c1.91,0.84,3.44,2.04,4.57,3.6l-4.31,3.87
				c-0.84-0.98-1.84-1.73-2.99-2.26s-2.36-0.79-3.63-0.79c-2.3,0-4.09,0.64-5.36,1.93s-1.9,3.11-1.9,5.45v5.01
				c0,2.4,0.63,4.26,1.9,5.57c1.27,1.31,3.06,1.96,5.36,1.96c1.27,0,2.48-0.28,3.63-0.85c1.15-0.57,2.15-1.37,2.99-2.4l4.31,4.16
				c-1.13,1.52-2.66,2.7-4.58,3.53S598.91,109.88,596.55,109.88z"/>
			<path class="st1" d="M614.16,72.82v-5.98h5.98v5.98H614.16z M614.16,109.44V79.03h5.98v30.41H614.16z"/>
			<path class="st1" d="M640.87,109.88c-3.98,0-7.07-1.16-9.26-3.47s-3.28-5.57-3.28-9.77v-4.95c0-4.16,1.09-7.38,3.28-9.67
				s5.27-3.43,9.26-3.43s7.07,1.14,9.26,3.43s3.28,5.51,3.28,9.67v5.04c0,4.18-1.09,7.42-3.28,9.71
				C647.94,108.73,644.86,109.88,640.87,109.88z M640.87,104.2c2.09,0,3.71-0.65,4.85-1.96c1.14-1.31,1.71-3.14,1.71-5.51v-5.04
				c0-2.36-0.57-4.19-1.71-5.48s-2.76-1.93-4.85-1.93c-2.07,0-3.68,0.64-4.83,1.93s-1.73,3.12-1.73,5.48v5.04
				c0,2.36,0.58,4.2,1.73,5.51C637.19,103.54,638.8,104.2,640.87,104.2z"/>
			<path class="st1" d="M661.91,109.44V79.03h5.98v30.41H661.91z M680.37,109.44V91.01c0-2.15-0.55-3.81-1.66-4.98
				s-2.67-1.76-4.7-1.76c-1.95,0-3.46,0.52-4.53,1.55c-1.06,1.04-1.6,2.49-1.6,4.37l-0.62-5.86c0.94-1.84,2.16-3.25,3.68-4.25
				s3.19-1.49,5.02-1.49c3.3,0,5.85,1.08,7.66,3.24c1.81,2.16,2.71,5.21,2.71,9.16v18.46H680.37z"/>
			<path class="st1" d="M707.88,109.88c-4.24,0-7.52-1.18-9.84-3.54c-2.32-2.36-3.49-5.72-3.49-10.08v-3.43
				c0-4.53,1.12-8.04,3.35-10.52c2.24-2.48,5.39-3.72,9.45-3.72c3.83,0,6.79,1.41,8.89,4.22s3.15,6.76,3.15,11.84v1.99h-20.51v-4.8
				h14.82c-0.18-2.46-0.82-4.38-1.92-5.77c-1.1-1.39-2.58-2.08-4.44-2.08c-2.25,0-3.99,0.74-5.24,2.23
				c-1.25,1.48-1.88,3.58-1.88,6.3v3.87c0,2.52,0.67,4.45,2.01,5.8s3.22,2.02,5.64,2.02c1.21,0,2.41-0.24,3.6-0.73
				c1.19-0.49,2.26-1.17,3.19-2.05l3.93,3.93c-1.5,1.45-3.19,2.56-5.07,3.35S709.77,109.88,707.88,109.88z"/>
			<path class="st1" d="M738.34,109.88c-2.7,0-5.14-0.4-7.34-1.19s-4.17-1.98-5.9-3.56l3.54-4.37c1.66,1.25,3.3,2.19,4.91,2.81
				c1.61,0.63,3.21,0.94,4.79,0.94c2.36,0,4.14-0.37,5.32-1.1s1.77-1.83,1.77-3.3c0-1.13-0.4-1.93-1.19-2.4s-1.83-0.78-3.11-0.92
				s-2.65-0.27-4.12-0.37c-1.23-0.1-2.45-0.25-3.66-0.45s-2.31-0.58-3.31-1.11c-1-0.54-1.79-1.33-2.39-2.39s-0.89-2.47-0.89-4.25
				c0-3.22,0.99-5.63,2.96-7.24c1.97-1.6,4.91-2.4,8.82-2.4c2.38,0,4.6,0.32,6.65,0.97s3.97,1.63,5.77,2.96l-3.6,4.37
				c-1.52-0.98-3.02-1.71-4.5-2.2c-1.47-0.49-2.92-0.73-4.32-0.73c-2.03,0-3.55,0.35-4.57,1.04c-1.02,0.69-1.52,1.73-1.52,3.12
				c0,0.92,0.35,1.58,1.05,1.98c0.7,0.4,1.63,0.66,2.78,0.78s2.39,0.22,3.72,0.32c1.27,0.08,2.55,0.22,3.85,0.42s2.5,0.6,3.59,1.19
				s1.97,1.46,2.64,2.61c0.66,1.15,1,2.72,1,4.72c0,3.26-1.06,5.7-3.18,7.32C745.79,109.07,742.6,109.88,738.34,109.88z"/>
		</g>
	</g>
</g>
<g id="Dorsal">
	<g>
		<path d="M759.42,231c5.24,3.15,7.28,7.63,7.13,13.86c-0.34,14.8-0.09,29.62-0.12,44.43c-0.02,9.38-3.62,14.11-10.55,13.99
			c-6.84-0.12-10.25-4.86-10.27-14.36c-0.02-12.02-0.01-24.04-0.01-36.58c-23.76,0-47.2,0-71.46,0c0,2.85,0.02,5.55,0,8.25
			c-0.22,24.76,0.52,49.57-0.87,74.26c-3.39,60.47-53.89,113.68-113.88,121.2c-75.33,9.45-140.3-38.54-151.79-113.55
			c-2.92-19.05-1.38-38.78-1.73-58.21c-0.19-10.58-0.03-21.17-0.03-32.11c-24.01,0-47.29,0-71.46,0c0,2.78,0,5.47,0,8.15
			c0,57.17,0.15,114.33-0.06,171.5c-0.16,43.04-29.14,79.62-70.84,90.07c-3.56,0.89-7.18,1.53-11.11,2.35
			c0,132.08,0,263.93,0,396.34c191.47,0,382.97,0,575.05,0c0-131.82,0-263.8,0-395.55c-9.02-2.87-18.44-4.75-26.85-8.75
			c-34.63-16.48-53.5-44.27-54.73-82.6c-1.03-32.14-0.26-64.33-0.22-96.51c0.01-8.08,4.01-12.93,10.37-12.99
			c6.37-0.06,10.41,4.8,10.42,12.84c0.05,31.71-0.24,63.42,0.11,95.12c0.39,34.99,24.33,63.49,58.56,70.3
			c4.29,0.85,8.75,0.79,13.1,1.33c7.23,0.9,10.16,4.08,10.6,11.29c0.1,1.61,0.05,3.24,0.05,4.86c0,135.4-0.03,270.79,0.1,406.19
			c0.01,6.36-1.09,11.75-6.2,15.85c-201.83,0-403.67,0-605.5,0c-5.13-4.09-6.2-9.49-6.19-15.85c0.13-135.59,0.09-271.19,0.1-406.78
			c0-1.62,0-3.24,0.07-4.86c0.26-6.28,3.59-9.82,9.76-10.59c4.59-0.57,9.27-0.56,13.78-1.46c35.01-6.94,58.65-35.86,58.74-72.27
			c0.15-61.55,0.12-123.1-0.07-184.65c-0.02-6.39,1.48-11.29,7.12-14.55c33.33,0,66.66,0,99.99,0c7.27,5.23,6.2,13.22,6.75,20.64
			c4,54.99,51.98,101.08,107.14,102.91c63.38,2.1,114.07-43.62,118.45-107.06c0.44-6.39,1.08-12.28,6.53-16.48
			C692.76,231,726.09,231,759.42,231z M652.64,315.82c-28.19,38.02-65.17,59.5-112.82,59.44c-47.51-0.05-84.41-21.59-113.03-61.35
			c-1.11,44.37,14.23,79.07,49.58,102.83c39.04,26.24,80.6,27.68,121.13,3.89C636.8,397.56,654.05,361.33,652.64,315.82z"/>
		<g id="Distancia">
			<g id="Distancia_00000009574797222656366930000013271952080731638942_">
				<path d="M509.11,819.08v63.9h-12.04v-49.75l-7.78,2.94v-12.79l9.54-4.31H509.11z"/>
				<path d="M540.97,883.64c-6.36,0-11.13-1.63-14.33-4.9c-3.19-3.27-4.79-7.68-4.79-13.25v-29.05c0-5.65,1.61-10.09,4.83-13.32
					c3.22-3.22,7.98-4.83,14.28-4.83c6.33,0,11.1,1.6,14.3,4.81c3.21,3.21,4.81,7.65,4.81,13.34v29.05c0,5.65-1.61,10.09-4.83,13.32
					C552.03,882.03,547.27,883.64,540.97,883.64z M540.97,872.04c2.52,0,4.33-0.86,5.43-2.57c1.1-1.71,1.65-4.06,1.65-7.05v-22.9
					c0-3.02-0.55-5.38-1.65-7.08c-1.1-1.7-2.91-2.55-5.43-2.55c-2.49,0-4.29,0.85-5.41,2.55c-1.11,1.7-1.67,4.06-1.67,7.08v22.9
					c0,2.99,0.56,5.34,1.67,7.05S538.48,872.04,540.97,872.04z"/>
				<path d="M571.95,882.98v-63.9h12.04v63.9H571.95z M579.2,879.81l-1.63-13.27l21.27-29.18h12.74L579.2,879.81z M599.9,882.98
					l-11.51-23.55l9.93-5.98l15.51,29.53H599.9z"/>
			</g>
		</g>
		<g id="DorsalNum">
			<g id="DorsalNum_00000066474128673862876670000013038547013735666091_">
				<path d="M470.04,695.75c-9.54,0-16.7-2.45-21.49-7.35c-4.79-4.9-7.19-11.52-7.19-19.87v-43.57c0-8.48,2.42-15.14,7.25-19.97
					c4.83-4.83,11.97-7.25,21.42-7.25c9.49,0,16.64,2.41,21.46,7.22c4.81,4.81,7.22,11.48,7.22,20.01v43.57
					c0,8.48-2.42,15.14-7.25,19.97C486.63,693.34,479.49,695.75,470.04,695.75z M470.04,678.35c3.78,0,6.49-1.29,8.14-3.86
					c1.65-2.57,2.47-6.1,2.47-10.58v-34.34c0-4.53-0.82-8.06-2.47-10.61c-1.65-2.55-4.36-3.82-8.14-3.82
					c-3.74,0-6.44,1.27-8.11,3.82c-1.67,2.55-2.5,6.09-2.5,10.61v34.34c0,4.48,0.83,8.01,2.5,10.58
					C463.61,677.07,466.31,678.35,470.04,678.35z"/>
				<path d="M544.53,695.75c-9.54,0-16.7-2.45-21.49-7.35c-4.79-4.9-7.19-11.52-7.19-19.87v-43.57c0-8.48,2.42-15.14,7.25-19.97
					c4.83-4.83,11.97-7.25,21.42-7.25c9.49,0,16.64,2.41,21.46,7.22c4.81,4.81,7.22,11.48,7.22,20.01v43.57
					c0,8.48-2.42,15.14-7.25,19.97C561.12,693.34,553.98,695.75,544.53,695.75z M544.53,678.35c3.78,0,6.49-1.29,8.14-3.86
					c1.65-2.57,2.47-6.1,2.47-10.58v-34.34c0-4.53-0.82-8.06-2.47-10.61c-1.65-2.55-4.36-3.82-8.14-3.82
					c-3.74,0-6.44,1.27-8.11,3.82c-1.67,2.55-2.5,6.09-2.5,10.61v34.34c0,4.48,0.83,8.01,2.5,10.58
					C538.09,677.07,540.8,678.35,544.53,678.35z"/>
				<path d="M619.02,695.75c-9.54,0-16.7-2.45-21.49-7.35c-4.79-4.9-7.18-11.52-7.18-19.87v-43.57c0-8.48,2.42-15.14,7.25-19.97
					c4.83-4.83,11.97-7.25,21.42-7.25c9.49,0,16.64,2.41,21.46,7.22c4.81,4.81,7.22,11.48,7.22,20.01v43.57
					c0,8.48-2.42,15.14-7.25,19.97C635.61,693.34,628.47,695.75,619.02,695.75z M619.02,678.35c3.78,0,6.49-1.29,8.14-3.86
					c1.65-2.57,2.47-6.1,2.47-10.58v-34.34c0-4.53-0.82-8.06-2.47-10.61c-1.65-2.55-4.36-3.82-8.14-3.82
					c-3.74,0-6.44,1.27-8.11,3.82c-1.67,2.55-2.5,6.09-2.5,10.61v34.34c0,4.48,0.83,8.01,2.5,10.58
					C612.58,677.07,615.28,678.35,619.02,678.35z"/>
			</g>
		</g>
		<path d="M540.43,519.84c37.03,0,74.06-0.03,111.09,0.01c42.94,0.04,72.5,29.3,72.68,72.22c0.17,39.8,0.16,79.61,0,119.41
			c-0.17,42.92-29.7,72.21-72.64,72.25c-62.95,0.05-125.9,0.01-188.84,0.01c-1.85,0-3.72,0.13-5.55-0.11
			c-5.89-0.76-9.33-4.27-9.45-10.11c-0.11-5.88,3.34-9.46,9.11-10.44c2.25-0.39,4.62-0.16,6.93-0.16
			c62.49-0.01,124.97,0.01,187.46-0.01c31.92-0.01,52.08-20.02,52.15-51.9c0.09-39.57,0.11-79.14-0.01-118.71
			c-0.09-31.5-20.32-51.6-51.76-51.61c-74.52-0.02-149.04-0.03-223.56,0c-31.01,0.01-51.33,20.17-51.43,51.23
			c-0.13,40.03-0.12,80.07,0,120.1c0.08,26.05,14.26,43.89,39.35,50.01c8.15,1.99,11.6,6.25,10.37,12.81
			c-1.2,6.37-6.26,8.98-14.62,7.55c-31.48-5.39-55.25-33.39-55.77-67.62c-0.65-41.88-0.75-83.78,0.01-125.65
			c0.73-40.69,30.66-69.16,71.32-69.25C464.98,519.78,502.71,519.84,540.43,519.84z"/>
	</g>
</g>
</svg>
